<svg viewBox="0 0 1034 400" xmlns="http://www.w3.org/2000/svg"><g><g><g><g><g><line x1="51.5625" y1="376.921875" x2="46.5625" y2="376.921875" style="visibility: inherit;" fill="rgb(0, 0, 0)" stroke="rgb(204, 204, 204)" stroke-width="1px"></line><line x1="51.5625" y1="339.2296875" x2="46.5625" y2="339.2296875" style="visibility: inherit;" fill="rgb(0, 0, 0)" stroke="rgb(204, 204, 204)" stroke-width="1px"></line><line x1="51.5625" y1="301.5375" x2="46.5625" y2="301.5375" style="visibility: inherit;" fill="rgb(0, 0, 0)" stroke="rgb(204, 204, 204)" stroke-width="1px"></line><line x1="51.5625" y1="263.8453125" x2="46.5625" y2="263.8453125" style="visibility: inherit;" fill="rgb(0, 0, 0)" stroke="rgb(204, 204, 204)" stroke-width="1px"></line><line x1="51.5625" y1="226.153125" x2="46.5625" y2="226.153125" style="visibility: inherit;" fill="rgb(0, 0, 0)" stroke="rgb(204, 204, 204)" stroke-width="1px"></line><line x1="51.5625" y1="188.4609375" x2="46.5625" y2="188.4609375" style="visibility: inherit;" fill="rgb(0, 0, 0)" stroke="rgb(204, 204, 204)" stroke-width="1px"></line><line x1="51.5625" y1="150.76875" x2="46.5625" y2="150.76875" style="visibility: inherit;" fill="rgb(0, 0, 0)" stroke="rgb(204, 204, 204)" stroke-width="1px"></line><line x1="51.5625" y1="113.07656250000002" x2="46.5625" y2="113.07656250000002" style="visibility: inherit;" fill="rgb(0, 0, 0)" stroke="rgb(204, 204, 204)" stroke-width="1px"></line><line x1="51.5625" y1="75.38437499999998" x2="46.5625" y2="75.38437499999998" style="visibility: inherit;" fill="rgb(0, 0, 0)" stroke="rgb(204, 204, 204)" stroke-width="1px"></line><line x1="51.5625" y1="37.69218749999999" x2="46.5625" y2="37.69218749999999" style="visibility: inherit;" fill="rgb(0, 0, 0)" stroke="rgb(204, 204, 204)" stroke-width="1px"></line><line x1="51.5625" y1="0" x2="46.5625" y2="0" style="visibility: inherit;" fill="rgb(0, 0, 0)" stroke="rgb(204, 204, 204)" stroke-width="1px"></line></g><g transform="translate(41.5625, 0)"><text x="0" y="376.921875" dx="0em" dy="0.3em" style="text-anchor: end; visibility: hidden; font-family: Roboto, sans-serif; font-size: 12px; font-weight: 200;" fill="rgb(255, 255, 255)" stroke="none" stroke-width="1px">-550</text><text x="0" y="339.2296875" dx="0em" dy="0.3em" style="text-anchor: end; visibility: inherit; font-family: Roboto, sans-serif; font-size: 12px; font-weight: 200;" fill="rgb(255, 255, 255)" stroke="none" stroke-width="1px">-500</text><text x="0" y="301.5375" dx="0em" dy="0.3em" style="text-anchor: end; visibility: inherit; font-family: Roboto, sans-serif; font-size: 12px; font-weight: 200;" fill="rgb(255, 255, 255)" stroke="none" stroke-width="1px">-450</text><text x="0" y="263.8453125" dx="0em" dy="0.3em" style="text-anchor: end; visibility: inherit; font-family: Roboto, sans-serif; font-size: 12px; font-weight: 200;" fill="rgb(255, 255, 255)" stroke="none" stroke-width="1px">-400</text><text x="0" y="226.153125" dx="0em" dy="0.3em" style="text-anchor: end; visibility: inherit; font-family: Roboto, sans-serif; font-size: 12px; font-weight: 200;" fill="rgb(255, 255, 255)" stroke="none" stroke-width="1px">-350</text><text x="0" y="188.4609375" dx="0em" dy="0.3em" style="text-anchor: end; visibility: inherit; font-family: Roboto, sans-serif; font-size: 12px; font-weight: 200;" fill="rgb(255, 255, 255)" stroke="none" stroke-width="1px">-300</text><text x="0" y="150.76875" dx="0em" dy="0.3em" style="text-anchor: end; visibility: inherit; font-family: Roboto, sans-serif; font-size: 12px; font-weight: 200;" fill="rgb(255, 255, 255)" stroke="none" stroke-width="1px">-250</text><text x="0" y="113.07656250000002" dx="0em" dy="0.3em" style="text-anchor: end; visibility: inherit; font-family: Roboto, sans-serif; font-size: 12px; font-weight: 200;" fill="rgb(255, 255, 255)" stroke="none" stroke-width="1px">-200</text><text x="0" y="75.38437499999998" dx="0em" dy="0.3em" style="text-anchor: end; visibility: inherit; font-family: Roboto, sans-serif; font-size: 12px; font-weight: 200;" fill="rgb(255, 255, 255)" stroke="none" stroke-width="1px">-150</text><text x="0" y="37.69218749999999" dx="0em" dy="0.3em" style="text-anchor: end; visibility: inherit; font-family: Roboto, sans-serif; font-size: 12px; font-weight: 200;" fill="rgb(255, 255, 255)" stroke="none" stroke-width="1px">-100</text><text x="0" y="0" dx="0em" dy="0.3em" style="text-anchor: end; visibility: hidden; font-family: Roboto, sans-serif; font-size: 12px; font-weight: 200;" fill="rgb(255, 255, 255)" stroke="none" stroke-width="1px">-50</text></g><line x1="51.5625" y1="0" x2="51.5625" y2="376.921875" fill="rgb(0, 0, 0)" stroke="rgb(204, 204, 204)" stroke-width="1px"></line></g></g><g transform="translate(51, 0)" clip-path="url(#clip_0)"><clipPath id="clip_0"><rect width="982" height="376"></rect></clipPath><g><g><g><line x1="0" y1="0" x2="0" y2="376.921875" fill="rgb(0, 0, 0)" stroke="rgb(189, 189, 189)" stroke-width="1px" opacity="0.25"></line><line x1="140.34821428571428" y1="0" x2="140.34821428571428" y2="376.921875" fill="rgb(0, 0, 0)" stroke="rgb(189, 189, 189)" stroke-width="1px" opacity="0.25"></line><line x1="280.69642857142856" y1="0" x2="280.69642857142856" y2="376.921875" fill="rgb(0, 0, 0)" stroke="rgb(189, 189, 189)" stroke-width="1px" opacity="0.25"></line><line x1="421.04464285714283" y1="0" x2="421.04464285714283" y2="376.921875" fill="rgb(0, 0, 0)" stroke="rgb(189, 189, 189)" stroke-width="1px" opacity="0.25"></line><line x1="561.3928571428571" y1="0" x2="561.3928571428571" y2="376.921875" fill="rgb(0, 0, 0)" stroke="rgb(189, 189, 189)" stroke-width="1px" opacity="0.25"></line><line x1="701.7410714285714" y1="0" x2="701.7410714285714" y2="376.921875" fill="rgb(0, 0, 0)" stroke="rgb(189, 189, 189)" stroke-width="1px" opacity="0.25"></line><line x1="842.0892857142857" y1="0" x2="842.0892857142857" y2="376.921875" fill="rgb(0, 0, 0)" stroke="rgb(189, 189, 189)" stroke-width="1px" opacity="0.25"></line><line x1="982.4375" y1="0" x2="982.4375" y2="376.921875" fill="rgb(0, 0, 0)" stroke="rgb(189, 189, 189)" stroke-width="1px" opacity="0.25"></line></g><g><line x1="0" y1="376.921875" x2="982.4375" y2="376.921875" fill="rgb(0, 0, 0)" stroke="rgb(189, 189, 189)" stroke-width="1px" opacity="0.25"></line><line x1="0" y1="339.2296875" x2="982.4375" y2="339.2296875" fill="rgb(0, 0, 0)" stroke="rgb(189, 189, 189)" stroke-width="1px" opacity="0.25"></line><line x1="0" y1="301.5375" x2="982.4375" y2="301.5375" fill="rgb(0, 0, 0)" stroke="rgb(189, 189, 189)" stroke-width="1px" opacity="0.25"></line><line x1="0" y1="263.8453125" x2="982.4375" y2="263.8453125" fill="rgb(0, 0, 0)" stroke="rgb(189, 189, 189)" stroke-width="1px" opacity="0.25"></line><line x1="0" y1="226.153125" x2="982.4375" y2="226.153125" fill="rgb(0, 0, 0)" stroke="rgb(189, 189, 189)" stroke-width="1px" opacity="0.25"></line><line x1="0" y1="188.4609375" x2="982.4375" y2="188.4609375" fill="rgb(0, 0, 0)" stroke="rgb(189, 189, 189)" stroke-width="1px" opacity="0.25"></line><line x1="0" y1="150.76875" x2="982.4375" y2="150.76875" fill="rgb(0, 0, 0)" stroke="rgb(189, 189, 189)" stroke-width="1px" opacity="0.25"></line><line x1="0" y1="113.07656250000002" x2="982.4375" y2="113.07656250000002" fill="rgb(0, 0, 0)" stroke="rgb(189, 189, 189)" stroke-width="1px" opacity="0.25"></line><line x1="0" y1="75.38437499999998" x2="982.4375" y2="75.38437499999998" fill="rgb(0, 0, 0)" stroke="rgb(189, 189, 189)" stroke-width="1px" opacity="0.25"></line><line x1="0" y1="37.69218749999999" x2="982.4375" y2="37.69218749999999" fill="rgb(0, 0, 0)" stroke="rgb(189, 189, 189)" stroke-width="1px" opacity="0.25"></line><line x1="0" y1="0" x2="982.4375" y2="0" fill="rgb(0, 0, 0)" stroke="rgb(189, 189, 189)" stroke-width="1px" opacity="0.25"></line></g></g></g><g><g><line x1="0" y1="-37.69218750000003" x2="982.4375" y2="-37.69218750000003" fill="rgb(0, 0, 0)" stroke="rgb(153, 153, 153)" stroke-width="1.5px"></line></g></g><g><g><line x1="140.34821428571428" y1="0" x2="140.34821428571428" y2="376.921875" fill="rgb(0, 0, 0)" stroke="rgb(153, 153, 153)" stroke-width="1.5px"></line></g></g><g><g><g><g><g><path stroke="rgb(0, 119, 187)" stroke-width="2px" d="M145.96214285714285,339.2296875L148.76910714285717,339.2296875L150.17258928571428,339.2296875L152.97955357142857,339.22968749999995L155.78651785714285,339.22968750000007L157.19,339.2296875L158.59348214285714,339.22968749999995L159.99696428571428,339.2296875L161.40044642857143,339.22968749999995L162.80392857142857,339.22968749999995L164.20741071428571,339.22968749999995L165.61089285714286,339.2296875L167.014375,339.2296875L168.41785714285714,339.22968749999995L169.8213392857143,339.22968749999995L172.62830357142857,339.2296875L175.3510589285714,338.85572064460604L176.75454107142858,338.64575633486163L182.28145375,333.3832460897411L183.43511607142858,329.54958678606147L184.83859821428572,327.4365196116584L186.24208035714287,326.34474006419555L187.6455625,325.855653618284L190.4525267857143,325.8672400019026L193.17528214285716,322.25654130494354L194.50297625,320.1026344598535L197.26502910714285,319.10704536700405L198.47763767857143,318.23333209709705L199.88111982142857,317.90739343252125L201.2846019642857,317.9014875753123L203.91192053571427,317.84523388637365L206.7188848214286,318.15498121073927L208.1223669642857,318.5024753408613L211.97632892857143,318.4452400383871L212.8913992857143,317.60324066230527L214.05628946428573,316.7984636101974L214.74118875,315.12191635001784L215.43450892857143,312.97906610339976L217.92709321428572,309.23290087271835L218.3004194642857,305.4252181678484L220.5207282142857,302.6451348047292L221.41053589285713,298.3414843422228L222.29192267857144,295.2003435871385L223.17611642857142,292.7775792323077L223.69540482142855,290.2333133701138L224.5094244642857,288.0996206852805L225.97185285714284,285.40864428606756L226.9851669642857,283.53279895067254L228.38864910714287,282.72356196240315L229.79213124999998,282.5458607724875L232.22015535714286,282.49834575197497L233.505745,280.9686459887782L234.07555875,279.2303768991416L236.1246426785714,277.80166866611006L238.83897714285715,275.94399957574825L240.09930410714284,274.954391525539L241.03683017857142,274.08415597245204L242.4403123214286,273.8640582612819L243.35818964285713,273.4377410702029L244.23957642857144,272.8506717638563L245.64025160714286,271.4346749333137L246.2156792857143,269.92607089855636L246.87250892857142,268.46895166655986L247.35249982142858,266.8543820072449L250.38963517857144,263.090703774049L252.2506525,258.29957447237615L253.99939125,254.28207639195227L254.3867523214286,250.77699494634686L254.89200589285713,247.70601328059803L258.72351214285715,239.4044869821833L260.84557714285717,232.1710857100467L262.41747714285714,226.4982543499935L262.9395725,222.14470504720617L263.73394339285716,218.8752259240604L266.8356389285714,214.29619515869953L267.58790535714286,210.84618917125425L268.55630803571427,209.05963156496264L271.1499430357143,207.10117601501213L272.15202928571426,205.4918971510605L274.5547907142857,202.84676374916288L277.1091282142857,198.60614818670777L278.0522682142857,195.015443356147L279.18347482142855,191.19050933339034L279.64101,187.87635069738528L280.33994410714286,185.33603673755346L281.11466625,183.1333889866544L282.51814839285714,181.81180033611497L283.8121589285714,181.0942315207913L285.98755625,179.98222173908917L287.32367125,177.72892567536576L288.9910080357143,174.02194089830724L289.4373153571429,171.29417835810665L289.7264326785714,168.7167253063374L290.68080053571424,166.7149381077679L291.31798142857144,165.4746644412751L291.89621607142857,164.2148644907996L292.85619785714283,163.27203274286535L293.70109410714286,162.7364892845437L295.17194339285714,162.07744268190174L296.3256057142857,162.37253817193096L298.2427623214286,162.71241909036866L299.62098178571426,163.8390516552557L301.02446392857144,165.15128010432898L303.83142821428567,167.38901181259737L308.89799875,168.56279057373393L309.90850589285714,169.2519846362936L310.6383166071428,169.73786712912724L311.12672839285716,169.88465531203747L312.46565035714286,170.10540545795917L313.6586101785714,170.00868410081003L315.25857982142855,170.26123454343278L317.8157242857143,170.29516996914745L319.2192064285714,170.81910289854167L320.5188308928572,171.01887693382716L321.92231303571424,171.6634136602963L324.6198057142857,173.0874254323533L326.02328785714286,174.864536509412L335.8476628571429,181.99471786359396L341.46159142857147,189.72543473198084L347.07552,197.56920995036407L348.47900214285715,203.0564561021307L349.8824842857143,207.416249119805L353.41364535714285,211.2141467771809L354.81712749999997,214.67491642057183L356.22060964285714,217.77358554646543L357.6240917857143,219.83180287626485L361.8345382142857,223.43078616988126L363.23802035714283,226.5400266328064L364.6415025,229.06292045203492L366.0449846428572,231.53252546534324L367.4484667857143,233.4937411962592L368.8519489285714,235.26750899540446L370.9684,236.96801858503258L371.75435,237.7923176020541L372.1529389285714,238.1873936862325L374.9599032142857,239.18431052394956L376.3633853571429,240.21667536275532L377.0847751785714,241.12557689161866L378.02230125,241.39952669718127L378.5163269642857,241.27744147683538L378.9598273214286,241.03533008080333L382.0474880357143,242.11128643730646L382.60046,242.84430870282273L385.4074242857143,245.12651177007928L388.41368303571426,247.10795436734543L388.94700624999996,247.35904271775837L389.96874125,246.38797585991833L390.8360932142857,245.22637969624887L391.3778373214286,244.19170147039824L392.2058917857143,243.94479809018577L392.76447767857144,243.73032664616466L394.1286623214286,243.15234664725995L395.2430271428571,242.29295041923362L395.53495142857145,241.46973854301353L395.90266375,240.90042704228148L396.2900248214286,240.4141080312466L396.9131708928572,239.32022577036236L398.27174160714287,235.808335920744L399.36084374999996,231.87991293435866L401.51659232142856,228.82028081649284L402.5720108928571,226.6075796707734L403.47866035714287,224.74322260142947L404.5396928571428,223.2537139220332L404.7810917857143,221.6996408532199L405.73826660714286,219.92590481031758L406.2800107142857,218.91895604575174L407.81261321428576,218.52284839818773L408.68838607142857,216.97953048361478L409.61468428571425,214.89261851943218L411.8714835714286,208.79174318769384L412.62375,203.03855620466956L413.02795285714285,198.51015293132832L414.8749353571429,194.75883955085018L415.3268566071428,191.48281666080797L415.5850973214286,188.283915656046L415.89947732142855,185.19159896332974L416.15491107142856,182.09990335726116L416.5703417857143,179.18045898670778L416.91559839285713,176.2889809824635L417.1598042857143,173.30572451286372L417.42927285714285,170.29454743698153L417.7155832142857,167.28470951115438L418.9871380357143,160.8019571859559L419.30993892857146,155.74837085679295L419.95834767857144,152.39659004547076L420.8986807142857,147.10479208632637L422.2095330357143,139.29508340819078L422.5491757142857,133.46341478109005L422.91127410714284,128.8426937367418L423.18916357142854,124.85807907182566L423.8852907142857,120.19371954735868L424.18563589285714,116.20704534650298L424.6094875,112.75965957598955L424.8480794642857,110.18162900250596L425.15123160714285,108.11616579032803L425.48806732142856,106.81054924493353L426.64453660714287,102.7374040884335L426.9841792857143,99.88343041158672L427.53715125,97.22723235812755L429.2185228571429,93.64336418561322L429.7799157142857,89.99138782041182L430.51253339285716,86.11159016085213L430.95603375,83.02082205820406L431.24234410714286,80.9975009327908L431.4921639285715,79.50308059106946L431.82057875,78.38630269824672L432.0619776785714,77.33026833064083L432.4268830357143,76.63634113029674L432.7384560714286,75.62294184839749L433.608615,73.8781046159507L434.11106160714286,72.63821846052659L434.4450903571429,71.87016321514035L435.23946125000003,71.59326812695258L435.9440092857143,71.30651791447877L436.27523107142855,71.17668285295053L436.62610160714286,71.08069030220918L437.00784875,71.01706273345721L437.2773173214286,70.91857961242535L437.6787132142857,70.97105714245521L438.1980016071429,71.0477724450343L438.56010000000003,71.21441938724L439.21692964285717,71.34154482330015L439.4639425,71.36655926206782L440.3762058928572,70.7000948317234L440.94601964285715,69.40163111072688L441.52706125,67.13898893026058L442.2316092857143,65.13912727462977L442.5291475,63.52610537860229L442.82107178571425,62.57638375481033L443.09896125,61.72310479435956L443.37404375,60.18892777768154L444.15157285714287,59.425220055433385L444.42946232142856,58.67450367899675L444.93190892857143,57.76875388452969L445.20137750000004,56.920750488695894L445.49049482142857,56.246101905976175L445.8385583928572,55.88654384145407L446.22030553571426,55.60748640380659L446.8518725,55.13248470345949L447.17467339285713,54.820344111965994L447.4244932142857,54.467215512399015L447.71641750000003,54.092507826592964L449.2827035714286,52.664546933714455L450.7535528571429,52.01884802831643L451.3149457142857,51.926934146770414L451.9970380357143,51.87178581784286L452.25808571428576,51.83266708272762L452.76333928571427,51.65842709165853L455.05382214285714,51.75591266988541L455.30644892857146,51.63348197693127L456.5134435714286,51.698730535092906L456.90922553571426,51.86452486785827L457.1899219642857,51.90671090689048L457.6081596428572,51.99232911009039L458.1527107142857,51.850716216054266L458.70568267857146,51.777810255698334L459.51128142857146,51.715975165660396L460.2410921428571,51.74219671057175L460.93441232142857,51.82125223645276L462.060005,51.98326897378389L463.5252403571428,52.06238750235812L463.88733874999997,52.05256575832711L464.29434857142854,52.143164619886555L465.11117517857144,52.598569363953914L465.73432125,52.96528809921875L466.1076475,53.233566444640935L467.14622428571425,53.52419466891622L467.5728828571429,53.849340353481395L468.64233624999997,54.56608635091328L469.97845125000003,55.53287033128466L471.38193339285715,56.354171639726914L471.61771839285717,56.756490254572846L472.2352505357143,57.30545096178758L472.91453589285715,57.987625708984794L473.39733375000003,58.50548424134699L474.18328375,58.939830840027625L474.5818726785714,59.070775281665505L474.99168946428574,59.20060276951656L475.2751928571429,59.23327047766603L475.7215001785714,59.37650258181905L476.1172821428571,59.62225635122308L476.3895576785714,59.54958752617268L477.36076732142857,59.46979860239643L477.94180892857145,59.421925248130655L478.2253123214286,59.224340971746734L479.17406625,59.20831205165308L479.5165158928571,59.26805163738681L480.9396467857143,59.403403315958705L481.8041917857143,59.584117649136395L482.1241857142857,59.72571555808687L482.91013571428573,59.87098548433483L483.23012964285715,60.00036250603973L483.82520607142857,59.993558587150424L484.44273821428567,60.07088804802695L485.29044142857146,60.041901349552894L485.6946442857143,60.1390950528195L487.2356676785714,59.292798774779456L488.1198614285714,58.72169840902129L488.3865230357143,58.360944375193355L488.62792196428575,58.165599487874644L488.8833557142857,58.07553212676865L489.16124517857145,58.033553486170916L489.4784321428571,57.69175100659286L489.93316035714287,57.676639616197065L490.4636766071428,57.54997104045493L490.7219173214286,57.46794015725104L491.09524357142857,57.548382844350584L491.3534842857143,57.31018875182976L491.74365232142856,57.233608613856504L491.9822442857142,57.06403135235777L492.22083625000005,56.79342473163409L493.3632707142857,56.522507075156L493.64677410714285,56.34487868604972L495.6172630357143,56.01516454673952L496.5351403571429,56.10077974878043L496.7933810714286,55.96218107320243L497.0291660714286,55.76443844605311L497.2312675,55.45582277241244L497.52880571428574,55.26763964962298L497.7758185714286,54.99189924988356L498.0340592857143,54.68774803610566L498.3428253571429,54.44796444666338L498.57299642857146,54.1141264961955L498.8957973214285,53.38311708176122L499.80525374999996,53.53552465703478L500.04384571428574,53.59983193146227L500.28805160714285,53.49970702163596L500.5855898214286,53.44566411404744L500.86628625000003,53.26849935725292L501.10487821428575,53.062694876593085L501.62697357142855,53.04173383393391L502.37924000000004,52.688420661535915L502.62905982142854,52.102524601702086L502.8480030357143,51.70274216208708L503.40939589285716,50.862813717471674L503.95394696428576,50.129687506548855L504.44797267857143,49.30384414808293L504.69217857142854,48.340954087783906L505.50619821428575,47.27472847340705L505.93566375,46.66816241382482L506.1939044642857,46.1413945525582L506.90687339285716,45.807240021425216L507.16511410714287,45.458994571898984L507.50756375000003,45.32543167718328L508.50684303571427,45.27544723024416L509.0149035714286,45.16705616792708L509.27033732142854,45.071868240646516L509.81208142857145,44.903188081629274L510.05067339285716,44.73262534897758L510.34821160714284,44.58204060512323L510.5615408928571,44.43138317903004L510.8225885714286,44.30781941433023L511.03030392857136,43.79946641933485L511.44292767857144,43.669346924469245L511.71520321428574,43.63349029350602L512.1278269642858,43.654191380884214L512.7144825,43.67566009077184L513.0204416071429,43.68250927839728L513.2871032142857,43.46348168512611L514.1797178571429,43.307941577031784L514.3902401785715,43.16034067015325L514.7130410714285,43.03559479782864L515.3951333928571,43.13865559571912L515.7151273214286,43.18843029838761L515.9481053571429,43.0343570609448L516.1754694642857,42.94794515678628L516.6975648214285,42.85388294833508L517.1775557142857,42.83061263175968L517.4470242857143,42.774435375858346L517.68561625,42.64423711433949L518.23578125,42.560088419669505L518.86454125,42.63926041988949L519.6055798214286,42.909900725867864L519.7880325,42.92754819776208L520.1108333928572,42.79641368781083L520.8630998214286,42.678531634489026L521.7978189285715,42.25802009878116L522.0448317857143,42.0147589342687L522.3592117857143,41.92307907758317L522.6314873214286,41.828872116769325L522.923411607143,41.832654520061574L523.38375375,41.66606369821251L524.7114478571428,41.52690785775197L524.9921442857143,41.3921535306073L525.4328376785713,41.11228738060573L525.8651101785714,40.519198711341495L526.8166710714286,40.13017620073907L527.5998141071428,39.881687199706725L527.82437125,39.62705383364853L528.4952357142857,38.96166098423297L528.7029510714285,38.52322622778117L528.8882107142857,38.139549913800344L529.1436444642858,37.882204554126616L529.4215339285714,37.770012404278475L529.6881955357143,37.42829918565484L529.9183666071428,36.921733754480684L530.1176610714285,36.572563410666454L530.3450251785714,36.3389376522463L531.3106208928572,36.093224532303864L531.5604407142857,35.933734884272624L532.8011189285714,36.64013194971715L533.5954898214285,37.37153742674256L533.8088191071429,37.76816564700167L534.0642528571428,37.96091149404736L534.3112657142857,37.880559167165146L534.5695064285715,37.83234777103575L534.8333610714286,37.61646915570924L535.0523042857143,37.426633106184184L535.2487917857143,37.246395158929936L535.6361528571429,37.18649719429211L536.0515835714286,36.52335986337783L536.253685,36.08024868026806L536.4670142857143,35.76010512838025L536.7252550000001,35.57103271585261L536.9245494642856,35.346021865687135L537.4971701785714,35.313537001324505L537.7947083928572,35.29404608270694L537.9968098214285,35.27028975547057L538.4908355357143,35.283175530414L538.70977875,35.08284538420449L538.9315289285714,34.90837045445686L539.2262601785715,34.67704029873996L539.4423964285714,34.45984181115624L539.6220421428571,34.20287752073761L539.9560708928572,34.07885223637675L540.1609792857143,33.93809844767245L540.4164130357143,33.81444712764735L541.0114894642857,33.508071172325124L541.3707808928572,33.061909446482815L541.7890185714285,32.46855135884584L542.7153167857142,32.383920716373325L542.9651366071429,32.26981973195565L543.2374121428571,32.2405581881076L543.5237225,32.26823234690844L543.8296816071429,32.32403588899146L544.1047641071428,32.396719361592375L544.3854605357143,32.42525164993348L544.7531728571428,32.56298648304788L545.0647458928571,32.66371889674095L545.31175875,32.630682456132355L545.5615785714286,32.68322894761356L545.7861357142857,32.35592648132678L546.0247276785715,32.21985388188382L546.7769941071429,32.04774815199867L547.0380417857143,31.9686082661992L547.7117132142857,31.921124334719526L547.9755678571429,31.8956499949853L548.5453816071429,31.889411148057015L548.8344989285714,31.903759353724485L549.0478282142857,31.82793814521276L549.2948410714286,31.82466048606187L549.5895723214286,31.867924975680985L549.8786896428571,31.87880587423306L550.5860446428571,31.544597866561773L550.8639341071428,31.34105704280542L551.5488333928572,31.701392088441857L552.7277583928571,32.17390183126264L552.9803851785714,32.51168451897701L553.4631830357143,32.75355317840814L553.8084396428571,33.01627381502291L553.9852783928571,33.098521821991824L554.2014146428571,33.05740845595374L554.8049119642858,33.00560316559416L555.6610360714286,33.18559532115903L555.8799792857143,33.25439156769543L556.4638278571429,33.337884381573375L556.7922426785715,33.493517734790444L557.0364485714285,33.63514485098398L557.317145,33.77741168132708L557.5276673214286,33.87483355559878L557.76906625,33.969472008359276L558.0329208928571,34.01720932310331L558.2125666071429,33.93126598959873L558.9227285714286,33.04142610758368L559.2567573214286,32.57084477730889L559.8293780357143,32.11661969616589L560.3318246428571,31.84408464748009L560.6265558928571,31.719764965619685L561.867234107143,32.69452236819625L562.11144,33.3065163810275L562.4903801785715,33.45358940148488L562.8356367857143,33.69863400206643L563.1415958928571,33.94215267039347L563.4419410714286,34.19380153627996L563.6693051785714,34.35986865103129L563.8910553571428,34.42030757253102L564.1689448214286,34.54100105734304L564.3850810714285,34.50787948333999L565.1794519642857,34.52720558574071L565.39278125,34.45135739666385L566.2489053571428,34.638031345976366L566.4734625,34.67465134056387L566.7008266071429,34.70868511338222L567.1976592857143,34.71101386324874L567.6215108928571,34.6732097658176L567.8965933928572,34.72289796375386L568.1492201785715,34.80397170538401L568.41868875,34.94609183918653L568.5955275,35.02834790031444L568.8621891071429,35.17117972636418L569.2411292857142,35.470970170928204L569.4235819642857,35.59053555733754L569.97094,35.44516972164388L570.2011110714286,35.4152407808547L570.4846144642858,35.433468744578626L570.8972382142857,35.28760473450577L571.6888021428572,35.124701953462115L571.9498498214286,34.912376863033394L572.1659860714286,34.68246016303948L572.3680875,34.49626303877979L572.6403630357142,34.40866831635564L573.2242116071428,34.48577269992309L573.4122782142857,34.450618916756405L573.6677119642858,34.47777375111964L574.0915635714285,34.3704351724743L574.2936649999999,34.24874146466013L574.7343583928572,34.19984649155469L575.3631183928571,33.95038842099866L575.8318814285714,33.76452825046756L576.022755,33.59270556836829L576.2473121428571,33.41422758410872L576.9013348214286,33.24080217546519L577.6507942857143,32.606040286125534L577.9034210714285,32.19502986263145L578.4227094642857,31.92731607555694L578.6388457142857,31.612903034158624L579.0374346428572,31.581055997626848L579.5258464285714,31.567977513466417L579.7447896428571,31.424439468189554L580.5784580357142,31.446870325067295L580.8507335714286,31.469374596106228L581.2465155357143,31.307984856597898L581.4430030357142,31.102597328849065L581.6563323214286,30.973335074441053L581.9229939285714,30.8626084127524L582.467545,30.7207880407392L582.7173648214285,30.64172555528996L582.99806125,30.594288064020347L583.31244125,30.67739527245609L583.7559416071429,30.660920979429775L584.2864578571429,30.75657406850426L584.7945183928572,30.868242763970898L585.0303033928571,30.82970631636063L585.2436326785714,30.731200072794405L585.6057310714285,30.750496720808275L585.8415160714285,30.704781848441097L586.8323744642857,29.600864142042717L587.0990360714286,29.035005426181776L587.2786817857143,28.671366644533524L587.5088528571429,28.32955419682983L588.4126953571429,28.199851103207592L588.6119898214286,28.09790569490262L588.8225121428571,27.964370094073203L589.1846105357142,28.041047221334257L589.40355375,28.056900207800563L589.8330192857143,27.939766801811984L590.11090875,27.93883909491165L590.3017823214285,27.835760825034768L590.5516021428572,27.71662100193306L591.21123875,27.826059147962336L591.6042137500001,27.78316835153603L591.83999875,27.763465911987435L592.1627996428572,27.86321415145576L592.3733219642857,27.92909283289538L592.6343696428571,27.953542246539744L593.1199744642856,27.92901284792387L593.3557594642857,27.97761780768848L593.5578608928571,27.93742844685447L594.0546935714286,27.84396019311265L594.3353900000001,27.76677170788956L594.7592416071428,27.663165755580124L595.0174823214286,27.57386491345777L596.1178123214286,27.704222467228263L596.3760530357142,27.764343185117546L596.9655155357143,27.9210310759608L597.1479682142857,27.993936277488725L597.4090158928572,28.025617622339638L597.6756775,27.969242054250177L597.8553232142857,27.863048357550106L598.1921589285714,27.95914664644233L598.4532066071429,28.02283765808479L599.0005646428571,28.19372720069731L599.2616123214285,28.359583525198957L599.4917833928572,28.504328405009673L600.2693125,28.70576105524718L600.5331671428571,28.88391120601665L600.7745660714286,29.063171952873276L601.0384207142857,29.137559091943405L601.487535,29.218374403034375L602.745055,29.110065101930346L603.059435,29.11141813935572L603.3373244642858,29.09112242883283L603.9380148214285,29.253835004102246L604.9288732142858,29.2278333705491L605.5800889285715,29.016232555307536L606.3239344642857,28.970686178921206L606.9863780357143,28.928282858418566L607.2333908928572,28.88474935229253L607.7274166071428,28.81942790126577L607.9856573214286,28.756111478518104L608.1849517857142,28.594492446154753L608.4375785714286,28.539736092692845L608.8979207142858,28.524973794440193L609.1084430357142,28.401532993686068L609.3554558928572,28.339530289299386L609.5575573214286,28.226944291667383L609.8354467857143,28.20462377819791L610.03474125,28.176153674896803L610.3463142857142,28.10479477089418L610.5231530357144,27.998656829558477L610.7027987499999,27.88371324188867L611.1378782142857,27.73634669513323L611.3147169642857,27.563496635167656L611.7862869642858,27.486923869925104L612.2494360714286,27.302273236845345L612.4262748214286,27.14625177188777L612.8950378571429,26.99534833228625L613.3385382142857,26.766099294591218L613.6136207142857,26.6888564517547L613.8606335714285,26.675680055096667L614.0655419642857,26.65872846018969L614.7167576785714,26.576186846850486L614.9581566071429,26.505554345868944L615.2163973214285,26.312406095279993L615.5532330357142,26.36537970929966L616.0444517857143,26.44239496282116L616.2746228571428,26.38909618780241L616.6872466071429,26.29379432385699L616.9033828571429,26.13710527835809L618.2900232142856,26.338597312751553L618.5454569642857,26.43235526265094L619.2359701785714,26.77506973737113L619.46614125,26.95054513231295L620.1061291071429,27.052814350124496L620.3868255357143,27.1473451898553L620.6141896428571,27.2251712266718L620.8247119642857,27.220606025893364L621.3552282142857,27.154544306492156L621.5517157142858,27.12998507007082L621.8576748214285,27.163494331932775L622.31521,27.195661665115786L622.5930994642857,27.151639466091368L622.7895869642857,27.055871509435384L623.0843182142856,27.00745879290263L623.8814960714285,27.026655966697682L624.5299048214287,27.22211233001862L625.9137382142858,27.45396956981371L626.1747858928571,27.61419144666881L626.4582892857143,27.800786743001286L626.65758375,27.936867472932438L627.1207328571428,28.084854528978877L627.6652839285714,28.242999099299553L627.9572082142857,28.3137622893603L628.2070280357142,28.326066913506466L628.7291233928571,28.249019556081954L628.9957850000001,28.229930712912473L629.2512187499999,28.164200564988835L629.5150733928572,28.154915766124958L629.9417319642857,28.38454376871882L630.6603148214285,28.59468892612161L630.8989067857143,28.68760671151938L631.3003026785715,28.978556264670253L632.4511580357142,29.098849154538847L632.6504525,29.113734327833047L632.8525539285714,29.0804503658534L633.1388642857142,29.090633278555913L633.5486810714286,29.05151194106775L633.7732382142857,29.01296364390392L633.9921814285714,28.986818646452065L634.2784917857143,29.052545760739587L634.5114698214286,29.07690653464125L635.6539042857142,29.064383427696935L635.8981101785715,29.126224200771777L636.1170533928571,29.16935840237531L636.40336375,29.26459356057877L636.6475696428571,29.394103011347248L636.8861616071429,29.435623353610858L637.4138708928571,29.62336608503487L637.9078966071428,29.76918103293314L638.1633303571429,29.886823291562408L638.3822735714286,29.93328739515687L638.6236725,30.01242668018189L638.8285808928571,30.01166314693363L639.0671728571429,29.972005980182107L639.2973439285714,29.930120166306725L639.8559298214286,30.04369565191571L640.05803125,30.138978214017765L640.23487,30.117749657673986L640.4341644642857,30.05978143875797L640.7008260714285,30.034046264320622L640.8973135714285,29.867836409658207L641.0966080357142,29.731925168663246L642.1492196428571,29.81320895013212L642.5899130357143,29.816748133903697L642.76955875,29.78871835427639L643.3842839285714,29.45227147267558L643.8811166071429,29.220250053824746L644.0888319642858,28.851868058360697L644.5098766071429,28.552438466928653L645.0460067857143,28.243119495047498L645.2396873214286,28.021345084269882L645.500735,27.942557279825223L646.0144094642857,27.877190782785416L646.6543973214286,27.73544923882484L646.8312360714285,27.5991411890316L647.387015,27.28818951555063L647.9399869642857,27.122726044440075L648.6557628571429,26.812370331444615L649.3883805357143,26.520619238757035L649.6045167857143,26.366676116122576L649.8739853571429,26.180834353717444L650.1069633928572,26.039176006384057L650.3090648214286,25.866734846918217L650.5925682142857,25.85373002090955L650.7834417857142,25.839897387545722L650.9602805357143,25.735105899549378L651.2129073214286,25.672231006751613L651.4262366071429,25.55007593916062L652.0662244642857,25.58232056349639L652.3385000000001,25.634836647141732L652.5911267857143,25.636193007438646L653.2114658928571,25.459098502331567L653.4472508928571,25.14779620724531L653.8851373214285,24.86150920361047L654.0619760714286,24.677675225363817L654.460565,24.308052404371864L654.8928374999999,24.062155159645037L655.5889646428571,23.914616812808983L655.7910660714285,23.8291098238609L656.0408858928571,23.829066453360426L656.3019335714285,23.80190085977489L656.4787723214287,23.746402456821006L656.6556110714286,23.691995882070728L656.87736125,23.65633591806691L657.1243741071429,23.66509553010344L657.3966496428571,23.655273502105935L657.5734883928571,23.589073705526854L657.8373430357143,23.618706164272258L658.0478653571429,23.633469620365844L658.2668085714286,23.666451246153724L658.5138214285714,23.7224255498239L659.0246889285714,23.698717270850427L659.3166132142857,23.762892697619975L659.6001166071428,23.7983819345281L659.8808130357143,23.858874523475492L662.4267296428571,24.030863332173045L663.1649612499999,24.079779775369634L663.4260089285714,24.17245224022179L663.6056546428572,24.231071738286673L664.0323132142858,24.510488075950068L664.6217757142857,24.813828833328692L664.8828233928571,25.062171905843616L665.1550989285714,25.280532386593915L665.5845644642858,25.20047104471504L666.11227375,25.233850652894798L666.2919194642857,25.223725127912438L666.4715651785714,25.217649812922996L666.7101571428572,25.25320367073182L666.8898028571429,25.268506247658532L667.1283948214286,25.289747269331826L667.5606673214286,25.483416222774622L667.8301358928571,25.63881664164284L668.0799557142857,25.777287978073446L668.5795953571428,25.944800911844112L669.1016907142857,26.030230876886996L669.3487035714286,26.138781717088328L669.88483375,26.215973997274926L670.3732455357143,26.29244265527717L671.1900721428572,26.754447072429596L671.5353287500001,27.212571762611375L671.7486580357142,27.52966164267652L671.9311107142858,27.698808037737553L672.8742507142857,28.62047824286198L673.3402067857144,29.3845556957172L674.5864989285715,30.10835433923283L675.2321007142857,30.642141452473883L676.0376994642858,31.113182470418494L676.262256607143,31.38676132427306L676.9611907142856,31.780077780739322L677.1408364285713,32.00400587855335L677.3232891071428,32.144392475000345L678.0278371428572,32.2919470318027L678.2383594642857,32.112111574928036L678.4601096428571,31.949933458781267L678.6790528571428,31.8164435614443L678.9401005357142,31.823795774107953L679.2404457142858,31.9156509522234L679.4593889285715,31.96775034048765L679.7204366071429,32.026147244182916L680.3323548214286,32.05816936724642L680.5091935714286,32.07738264108456L680.7814691071428,32.14318744740936L681.2446182142857,32.21583964024815L681.4691753571428,32.25943095595143L681.8958339285714,32.23734094165861L682.1091632142857,32.23614870914874L682.9119549999999,32.359062548357606L683.1308982142857,32.478041936992646L683.3077369642857,32.501184766458884L683.5687846428572,32.5301459588095L683.7484303571429,32.44801474708822L683.9505317857142,32.42587559134068L684.169475,32.36434499362891L684.671921607143,32.405827029155404L684.89647875,32.40659269833962L685.19121,32.50656002698186L685.4101532142857,32.4700485161891L685.5869919642856,32.324510130450165L685.8031282142857,32.16481874316038L686.15399875,31.927280917698713L686.8136353571429,31.826973288377857L686.9904741071429,31.540635585785353L687.4620441071429,31.444217339229898L688.5764089285715,31.347167344494046L688.7700894642857,31.19847517743312L689.1630644642858,30.988646717635394L689.3848146428571,30.90797842631797L690.0388373214286,30.47059610101018L690.4626889285714,30.09056726486941L690.6395276785714,29.820332596680267L690.90899625,29.71850067609592L691.41986375,29.639310009920862L691.636,29.630994657018327L691.8773989285714,29.69234406336463L692.1524814285715,29.76835275397491L692.5230007142858,29.76269714547269L692.8093110714285,29.602502992064203L693.0535169642857,29.479249229282377L693.2893019642858,29.390219176393913L693.5026312499999,29.37298647285826L693.8984132142857,29.1395097448905L694.1398121428572,29.0024374267149L694.4317364285714,28.968441140072812L694.8612019642857,28.83345994628501L695.0380407142858,28.719301920968487L695.7089051785714,28.1924688174714L696.1524055357143,27.75273977665841L696.5566083928571,27.727117253236404L697.0450201785715,26.722698806722413L697.2218589285714,25.881835138296776L697.4492230357142,25.268763253197477L697.6793941071428,24.852673017874576L697.9993880357142,24.68443528998808L698.1958755357143,24.453831436234196L698.4232396428572,24.206915439937987L699.1165598214286,23.938150382050527L699.2933985714286,23.72563052444978L699.4730442857143,23.368949465735714L699.6667248214286,23.034325370397514L699.8828610714286,22.872749959997186L700.1382948214285,22.854205107910534L700.3572380357143,22.840062177504965L700.7109155357143,22.69286944532741L700.9467005357143,22.631693377306163L701.1431880357143,22.56784816520814L701.3986217857142,22.56874238530045L701.7242296428572,22.63863125404864L702.0133469642857,22.66850279923169L702.6252651785715,22.592949837517043L703.0771864285715,22.610940659422493L703.3073575,22.679028013741238L703.5066519642857,22.641480032178936L703.7255951785714,22.615935224087938L703.9248896428571,22.55537955467216L704.1213771428572,22.488890562583897L704.3431273214286,22.497244271594244L704.5424217857143,22.447979654978482L704.74171625,22.403343089789576L705.0111848214286,22.406716741115112L705.6567866071429,22.264001919669074L705.8532741071429,22.19948055977951L706.5213316071429,22.18790731513102L706.7150121428572,22.153823797056695L707.1051801785715,22.012758226102346L707.41394625,22.01858105374919L707.6721869642857,21.982873402986204L708.0960385714285,21.991604402967248L708.3598932142858,22.048103825824253L708.5704155357143,22.11818880773589L709.0644412500001,22.28085295644404L709.2833844642857,22.32116088504196L709.5668878571428,22.456913044849625L710.0777553571429,22.661995819997564L710.2770498214286,22.727752623910764L710.5016069642858,22.498838515302605L710.9619491071428,22.406721135247402L711.2763291071429,22.45095863434591L711.5626394642857,22.577006760388098L712.0594721428572,22.764205339210932L712.2924501785715,22.888586262570456L712.7892828571429,22.984322349564167L713.0559444642857,23.13825590973849L713.3001503571429,23.302984401689503L713.5696189285713,23.425945048991775L713.8054039285714,23.563044036307314L714.0411889285714,23.609120401047647L714.4846892857142,23.564395563496934L714.7681926785714,23.609931317361486L715.6692282142858,23.836266323394923L716.2278141071429,24.0806210110589L717.0053432142856,24.317695993876722L717.9428692857143,24.468986740479632L719.9217791071428,24.83717513630969L720.1323014285714,24.85002656263219L720.3989630357142,24.921060017359892L720.6515898214285,24.933526800306243L720.9968464285714,25.121928909964307L721.6817457142856,25.13546454917604L721.8978819642857,25.164693465681164L722.3161196428572,25.197306310255126L722.5547116071428,25.14450566115307L723.0431233928572,25.221378955735737L723.2620666071429,25.309717998441435L723.5287282142858,25.44112181821846L723.7925828571429,25.571224932953037L724.1855578571428,25.56184065072792L724.4999378571429,25.703962812239276L724.7497576785714,25.867636503299686L725.0501028571429,26.03519535517729L725.2802739285714,26.171913693952785L725.7995623214285,26.187606079130298L725.9960498214285,26.097515883653706L726.1869233928571,26.037429728060594L726.5798983928572,25.977254482573056L727.0177848214286,25.926073840609668L727.2339210714285,25.8802876602122L728.4830201785715,26.081985096127323L728.8956439285714,26.21808135289579L729.8359769642858,26.326876377693587L730.0801828571429,26.44341421544062L730.3131608928571,26.552538265439907L730.5292971428571,26.596905162461447L731.3152471428571,26.79540158365239L731.7419057142857,26.833083023059814L732.3313682142857,26.756183959572528L732.5110139285715,26.6195846518094L733.1060903571428,26.42002562619536L733.3194196428572,26.294258172519722L733.9060751785714,25.995660594467946L734.1250183928571,25.837609580614952L734.8492151785714,25.78499403825924L735.0428957142857,25.623763495823905L735.3207851785714,25.51797941345048L735.6099025,25.481648535311663L735.8513014285714,25.468895765340587L736.0281401785713,25.40093522302881L736.2667321428571,25.381266430619817L736.8309319642858,25.390572688152446L737.0695239285715,25.39012670491341L737.3277646428571,25.377797338904152L737.5046033928572,25.307077120364426L737.7965276785714,25.324951569021195L738.0154708928571,25.320600743544396L738.1923096428571,25.281804920060818L738.4084458928571,25.186159070124265L738.6245821428571,25.101631988877074L739.4273739285713,24.60464152843595L740.1291150000001,24.225030838864107L740.3508651785714,24.021387977252616L740.6147198214286,23.968556897527094L740.8505048214286,23.915750716713752L741.3810210714286,23.893112765137946L741.594350357143,23.894605488863338L741.8132935714285,23.844240300230243L741.9929392857143,23.735620792896782L742.172585,23.5799892188258L742.3915282142858,23.46248672225161L742.632927142857,23.413092757285167L742.8546773214287,23.305055984151696L743.0736205357142,23.24928197773235L743.7416780357142,23.00473994355161L744.1823714285715,22.809769919328502L744.4013146428571,22.713895437772617L745.2714735714285,22.653354729685507L745.65041375,22.713522212811288L745.86655,22.767714216511237L746.2679458928571,22.709769549060333L746.4447846428571,22.581524559216785L747.0230192857143,22.365870591376474L748.1345771428571,22.59229255269421L748.5556217857143,22.6226080645946L749.5071826785714,22.82473543077872L749.7233189285714,22.927920336664695L749.9394551785714,23.001893056262116L750.1527844642857,23.043260668866996L750.9583832142857,23.10125054547379L751.3401303571428,23.03653654430619L751.5618805357143,23.003737881364344L751.78082375,23.00818223573078L752.0923967857142,23.13749404621908L752.31134,23.215081132512026L752.6958941071429,23.107850915682725L752.9148373214285,23.01637321429994L753.4397396428571,22.696134421667747L753.6755246428571,22.491929370022593L753.8916608928571,22.369406339035525L754.0684996428572,22.21749212628965L754.2453383928571,22.126343598642126L754.4614746428572,22.053562968229173L755.5028583928571,22.338569360718072" style="fill: none;" fill="none"></path></g></g></g></g><g opacity="0.2"><g><g><g><path stroke="rgb(0, 119, 187)" stroke-width="2px" d="M145.96214285714285,339.2296875L148.76910714285717,339.2296875L150.17258928571428,339.2296875L152.97955357142857,339.2296875L155.78651785714285,339.2296875L157.19,339.2296875L158.59348214285714,339.2296875L159.99696428571428,339.2296875L161.40044642857143,339.2296875L162.80392857142857,339.2296875L164.20741071428571,339.2296875L165.61089285714286,339.2296875L167.014375,339.2296875L168.41785714285714,339.2296875L169.8213392857143,339.2296875L172.62830357142857,339.2296875L175.3510589285714,338.2949286117554L176.75454107142858,338.3308631801605L182.28145375,325.490282412529L183.43511607142858,323.7994482421875L184.83859821428572,324.2670347356796L186.24208035714287,324.70710666847225L187.6455625,325.12203360557555L190.4525267857143,325.8846194400787L193.17528214285716,316.84051892280576L194.50297625,316.8717833776474L197.26502910714285,317.61366427516936L198.47763767857143,316.9227635335922L199.88111982142857,317.4184857358932L201.2846019642857,317.89262879276276L203.91192053571427,317.7608533716202L206.7188848214286,318.6196021356583L208.1223669642857,319.02371649456023L211.97632892857143,318.35938708877563L212.8913992857143,316.3402416343689L214.05628946428573,315.5912980527878L214.74118875,312.60709548568724L215.43450892857143,309.7647907533646L217.92709321428572,303.6136530475616L218.3004194642857,299.7136941232681L220.5207282142857,298.475009765625L221.41053589285713,291.8860086536408L222.29192267857144,290.4886324567795L223.17611642857142,289.14343270111084L223.69540482142855,286.41691457748414L224.5094244642857,284.89908165836334L225.97185285714284,281.37217968749997L226.9851669642857,280.7190309476852L228.38864910714287,281.50970648002624L229.79213124999998,282.27930898761747L232.22015535714286,282.4270732212067L233.505745,278.67409634399417L234.07555875,276.6229732646942L236.1246426785714,275.6586063165664L238.83897714285715,273.15749594020843L240.09930410714284,273.4699794502258L241.03683017857142,272.77880264282226L242.4403123214286,273.53391169452664L243.35818964285713,272.7982652835846L244.23957642857144,271.97006780433657L245.64025160714286,269.3106796875L246.2156792857143,267.66316484642033L246.87250892857142,266.28327281856537L247.35249982142858,264.4325275182724L250.38963517857144,257.4451864242554L252.2506525,251.11288051986693L253.99939125,248.25582927131651L254.3867523214286,245.51937277793883L254.89200589285713,243.09954078197478L258.72351214285715,226.95219753456115L260.84557714285717,221.32098380184175L262.41747714285714,217.98900730991366L262.9395725,215.6143810930252L263.73394339285716,213.9710072393417L266.8356389285714,207.42764901065826L267.58790535714286,205.67118019008637L268.55630803571427,206.37979515552522L271.1499430357143,204.16349269008637L272.15202928571426,203.07797885513304L274.5547907142857,198.87906364631652L277.1091282142857,192.24522484302517L278.0522682142857,189.6293861103058L279.18347482142855,185.45310829925535L279.64101,182.90511274337769L280.33994410714286,181.52556579780577L281.11466625,179.8294173603058L282.51814839285714,179.8294173603058L283.8121589285714,180.01787829780577L285.98755625,178.31420706653594L287.32367125,174.3489815797806L288.9910080357143,168.46146373271944L289.4373153571429,167.20253454780575L289.7264326785714,164.85054572868347L290.68080053571424,163.71225730991364L291.31798142857144,163.61425394153596L291.89621607142857,162.3251645650864L292.85619785714283,161.85778512096405L293.70109410714286,161.93317409706117L295.17194339285714,161.08887277793883L296.3256057142857,162.8151814069748L298.2427623214286,163.2222404680252L299.62098178571426,165.52900050258637L301.02446392857144,167.11962277793884L303.83142821428567,170.745609375L308.89799875,170.32345871543885L309.90850589285714,170.28577573013305L310.6383166071428,170.46669086837767L311.12672839285716,170.1048375864029L312.46565035714286,170.43653067684173L313.6586101785714,169.86360206508635L315.25857982142855,170.64006020736693L317.8157242857143,170.3460731077194L319.2192064285714,171.6050022926331L320.5188308928572,171.31853798675536L321.92231303571424,172.63021874999998L324.6198057142857,175.22344309043882L326.02328785714286,177.53020312499999L335.8476628571429,192.68998989486698L341.46159142857147,201.3215100345612L347.07552,209.33487277793884L348.47900214285715,211.28732532978057L349.8824842857143,213.95593864631653L353.41364535714285,216.91099326324465L354.81712749999997,219.86607088565825L356.22060964285714,222.4215892353058L357.6240917857143,222.91912887096407L361.8345382142857,228.82926111030577L363.23802035714283,231.20388732719422L364.6415025,232.84726118087772L366.0449846428572,235.2369329853058L367.4484667857143,236.43556479263304L368.8519489285714,237.92816069412234L370.9684,239.5187829694748L371.75435,239.02876612758638L372.1529389285714,238.78000781249997L374.9599032142857,240.6796857805252L376.3633853571429,241.76522262096404L377.0847751785714,242.48892918491364L378.02230125,241.8104514055252L378.5163269642857,241.09431364631655L378.9598273214286,240.67216298675535L382.0474880357143,243.72522097206115L382.60046,243.94384210109712L385.4074242857143,248.54981637096404L388.41368303571426,250.08011826324463L388.94700624999996,247.73567524337767L389.96874125,244.93137557315825L390.8360932142857,243.48398545074465L391.3778373214286,242.63968413162232L392.2058917857143,243.57444301986695L392.76447767857144,243.40861948013304L394.1286623214286,242.2853766489029L395.2430271428571,241.00385607719423L395.53495142857145,240.2349207286835L395.90266375,240.04645979118348L396.2900248214286,239.6846295146942L396.9131708928572,237.67940237903593L398.27174160714287,230.54050114631653L399.36084374999996,225.98727845478055L401.51659232142856,224.23083263969423L402.5720108928571,223.28852795219422L403.47866035714287,221.94668699741365L404.5396928571428,221.01945090293884L404.7810917857143,219.36853125000002L405.73826660714286,217.26530074596403L406.2800107142857,217.4085328989029L407.81261321428576,217.92868692684172L408.68838607142857,214.66455361175537L409.61468428571425,211.76225057315827L411.8714835714286,199.64043019008636L412.62375,194.40877573013307L413.02795285714285,191.71754802131656L414.8749353571429,189.13186948013308L415.3268566071428,186.56878232574465L415.5850973214286,183.48556414890288L415.89947732142855,180.55312392425535L416.15491107142856,177.46235994815828L416.5703417857143,174.8012924308777L416.91559839285713,171.95176397609708L417.1598042857143,168.83083980846405L417.42927285714285,165.77778182315828L417.7155832142857,162.76995262241363L418.9871380357143,151.07782869815827L419.30993892857146,148.16799136304854L419.95834767857144,147.3689188284874L420.8986807142857,139.1670951476097L422.2095330357143,127.58052039098737L422.5491757142857,124.71591184043886L422.91127410714284,121.91161217021943L423.18916357142854,118.88115707445142L423.8852907142857,113.19718026065824L424.18563589285714,110.22703404521941L424.6094875,107.58858092021941L424.8480794642857,106.3145831422806L425.15123160714285,105.01797097206115L425.48806732142856,104.85212442684171L426.64453660714287,96.62768635368346L426.9841792857143,95.60246989631655L427.53715125,93.24293527793886L429.2185228571429,88.26756192684174L429.7799157142857,84.51342327260973L430.51253339285716,80.29189367151263L430.95603375,78.38466990423204L431.24234410714286,77.96251924467087L431.4921639285715,77.2614500784874L431.82057875,76.7111358590126L432.0619776785714,75.74621677923203L432.4268830357143,75.59545032978059L432.7384560714286,74.10284292554853L433.608615,71.26084876728056L434.11106160714286,70.77838922739028L434.4450903571429,70.71808034706116L435.23946125000003,71.17792549467086L435.9440092857143,70.87639259576797L436.27523107142855,70.98193026065825L436.62610160714286,70.93670147609708L437.00784875,70.92162138032914L437.2773173214286,70.77085493087769L437.6787132142857,71.0497734375L438.1980016071429,71.16284539890292L438.56010000000003,71.46438980054853L439.21692964285717,71.53223297739028L439.4639425,71.40408092021941L440.3762058928572,69.70039818620681L440.94601964285715,67.45393552923203L441.52706125,63.745025659561136L442.2316092857143,62.13933479118349L442.5291475,61.10657253456118L442.82107178571425,61.1518013191223L443.09896125,60.443186353683465L443.37404375,57.88766225266457L444.15157285714287,58.27965847206116L444.42946232142856,57.54842911434174L444.93190892857143,56.410129192829146L445.20137750000004,55.648745394945145L445.49049482142857,55.23412903189657L445.8385583928572,55.34720674467085L446.22030553571426,55.18890024733545L446.8518725,54.419982152938864L447.17467339285713,54.35213322472571L447.4244932142857,53.937522613048536L447.71641750000003,53.530446297884005L449.2827035714286,50.52260559439659L450.7535528571429,51.050299670219445L451.3149457142857,51.78906332445145L451.9970380357143,51.78906332445145L452.25808571428576,51.77398898005487L452.76333928571427,51.397067105054866L455.05382214285714,51.902141037225725L455.30644892857146,51.449835937499984L456.5134435714286,51.79660337233545L456.90922553571426,52.11321636700629L457.1899219642857,51.96998996543884L457.6081596428572,52.12075641489029L458.1527107142857,51.638296875L458.70568267857146,51.66845131516458L459.51128142857146,51.62322253060342L460.2410921428571,51.78152902793886L460.93441232142857,51.93983552527426L462.060005,52.226294079780565L463.5252403571428,52.1810652952194L463.88733874999997,52.03783314228059L464.29434857142854,52.279062912225726L465.11117517857144,53.28167648005486L465.73432125,53.51536620211601L466.1076475,53.63598396277428L467.14622428571425,53.96013700532912L467.5728828571429,54.337058880329124L468.64233624999997,55.64120534706115L469.97845125000003,56.98304630184175L471.38193339285715,57.586123602390266L471.61771839285717,57.35996817684172L472.2352505357143,58.128892022609705L472.91453589285715,59.01088782978057L473.39733375000003,59.282272039890294L474.18328375,59.59135073804855L474.5818726785714,59.2671919441223L474.99168946428574,59.39534400129316L475.2751928571429,59.282272039890294L475.7215001785714,59.59135073804855L476.1172821428571,59.99088700532913L476.3895576785714,59.4405842885971L477.36076732142857,59.35011521673204L477.94180892857145,59.35011521673204L478.2253123214286,58.927964557170874L479.17406625,59.1842686715126L479.5165158928571,59.3576610159874L480.9396467857143,59.60643083381654L481.8041917857143,59.8551891489029L482.1241857142857,59.9381124215126L482.91013571428573,60.08889037370682L483.23012964285715,60.194428038597096L483.82520607142857,59.98335270881654L484.44273821428567,60.18688223934174L485.29044142857146,59.99842130184172L485.6946442857143,60.28488560771943L487.2356676785714,58.02335435771943L488.1198614285714,57.86504786038398L488.3865230357143,57.81981332445145L488.62792196428575,57.87258215689658L488.8833557142857,57.94043108510973L489.16124517857145,57.97058552527427L489.4784321428571,57.179047287225735L489.93316035714287,57.653972530603426L490.4636766071428,57.35996817684172L490.7219173214286,57.34489383244513L491.09524357142857,57.66904687500001L491.3534842857143,56.95289761304854L491.74365232142856,57.118738406896576L491.9822442857142,56.80966546010973L492.22083625000005,56.387514800548566L493.3632707142857,56.11613059043884L493.64677410714285,56.07843610239031L495.6172630357143,55.52059333777429L496.5351403571429,56.22920255184176L496.7933810714286,55.75428305983543L497.0291660714286,55.467824505329126L497.2312675,54.99289926195143L497.52880571428574,54.98536496543884L497.7758185714286,54.57828865027426L498.0340592857143,54.23152121543884L498.3428253571429,54.08828906249999L498.57299642857146,53.6133695704937L498.8957973214285,52.286602960109725L499.80525374999996,53.76413601994515L500.04384571428574,53.6962928431034L500.28805160714285,53.34951965689657L500.5855898214286,53.36459975266456L500.86628625000003,53.00275222206115L501.10487821428575,52.753988155603416L501.62697357142855,53.01029226994515L502.37924000000004,52.15845090293886L502.62905982142854,51.22368051195143L502.8480030357143,51.10306850266456L503.40939589285716,49.60292105054856L503.95394696428576,49.029998190164584L504.44797267857143,48.06507911038398L504.69217857142854,46.896618997335445L505.50619821428575,45.675390051841745L505.93566375,45.75831332445144L506.1939044642857,45.35124276065827L506.90687339285716,45.306008224725744L507.16511410714287,44.93662639760969L507.50756375000003,45.12508733510972L508.50684303571427,45.200470559835416L509.0149035714286,45.00446957445144L509.27033732142854,44.92908634972574L509.81208142857145,44.65016784310339L510.05067339285716,44.476781249999995L510.34821160714284,44.356163489341725L510.5615408928571,44.20539703989028L510.8225885714286,44.12247376728058L511.03030392857136,43.03693692684175L511.44292767857144,43.47416768217086L511.71520321428574,43.57970534706114L512.1278269642858,43.685243011951464L512.7144825,43.70786315560341L513.0204416071429,43.69278305983542L513.2871032142857,43.13494029521944L514.1797178571429,43.07463141489028L514.3902401785715,42.93893930983542L514.7130410714285,42.84847598934172L515.3951333928571,43.29324679255483L515.7151273214286,43.263092352390295L515.9481053571429,42.80324720478056L516.1754694642857,42.81832730054855L516.6975648214285,42.71278963565827L517.1775557142857,42.795707156896604L517.4470242857143,42.69016949200632L517.68561625,42.44893972206114L518.23578125,42.43386537766455L518.86454125,42.758018420219436L519.6055798214286,43.31586118483542L519.7880325,42.95401940560341L520.1108333928572,42.59971192288399L520.8630998214286,42.5017085545063L521.7978189285715,41.627252795219434L522.0448317857143,41.649867187500014L522.3592117857143,41.78555929255488L522.6314873214286,41.68756167554855L522.923411607143,41.838328125L523.38375375,41.41617746543883L524.7114478571428,41.31817409706114L524.9921442857143,41.19002203989027L525.4328376785713,40.69248815560341L525.8651101785714,39.62956570744515L526.8166710714286,39.54664243483541L527.5998141071428,39.508953698158244L527.82437125,39.24510378456116L528.4952357142857,37.96357171010971L528.7029510714285,37.865574093103426L528.8882107142857,37.56403544282913L529.1436444642858,37.496186514616014L529.4215339285714,37.6017241795063L529.6881955357143,36.91572935771941L529.9183666071428,36.161885607719405L530.1176610714285,36.04880789494513L530.3450251785714,35.98849901461602L531.3106208928572,35.724654852390294L531.5604407142857,35.694500412225715L532.8011189285714,37.69972754788399L533.5954898214285,38.46864564228058L533.8088191071429,38.36310797739029L534.0642528571428,38.250030264616015L534.3112657142857,37.76003067684174L534.5695064285715,37.76003067684174L534.8333610714286,37.29265123271941L535.0523042857143,37.1418790318966L535.2487917857143,36.97603823804857L535.6361528571429,37.09665024733543L536.0515835714286,35.52865386700632L536.253685,35.4155819056034L536.4670142857143,35.279889800548546L536.7252550000001,35.28742409706118L536.9245494642856,35.00850559043882L537.4971701785714,35.264809704780596L537.7947083928572,35.264809704780596L537.9968098214285,35.234655264616016L538.4908355357143,35.302504192829126L538.70977875,34.78235016489027L538.9315289285714,34.64665805983545L539.2262601785715,34.33004506516457L539.4423964285714,34.134044079780594L539.6220421428571,33.81743108510971L539.9560708928572,33.89281430983545L540.1609792857143,33.72696776461601L540.4164130357143,33.62897014760973L541.0114894642857,33.04850723934176L541.3707808928572,32.392666857719405L541.7890185714285,31.578514227390286L542.7153167857142,32.25697475266459L542.9651366071429,32.098668255329144L543.2374121428571,32.19666587233543L543.5237225,32.30974358510971L543.8296816071429,32.407741202116036L544.1047641071428,32.50574457049368L544.3854605357143,32.468050082445146L544.7531728571428,32.769588732719406L545.0647458928571,32.81481751728057L545.31175875,32.58112779521942L545.5615785714286,32.76204868483545L545.7861357142857,31.864972781896594L546.0247276785715,32.015744982719404L546.7769941071429,31.78958955717085L547.0380417857143,31.849898437500006L547.7117132142857,31.849898437500006L547.9755678571429,31.857438485384005L548.5453816071429,31.880052877664586L548.8344989285714,31.92528166222571L549.0478282142857,31.714206332445148L549.2948410714286,31.81974399733543L549.5895723214286,31.932821710109707L549.8786896428571,31.895127222061173L550.5860446428571,31.043285855054844L550.8639341071428,31.035745807170848L551.5488333928572,32.24189465689659L552.7277583928571,32.88266644549368L552.9803851785714,33.01835855054854L553.4631830357143,33.11635616755487L553.8084396428571,33.41035476994513L553.9852783928571,33.22189383244515L554.2014146428571,32.99573840689659L554.8049119642858,32.927895230054844L555.6610360714286,33.45558355450629L555.8799792857143,33.35758593750001L556.4638278571429,33.46312360239029L556.7922426785715,33.72696776461601L557.0364485714285,33.84758552527428L557.317145,33.99081192684174L557.5276673214286,34.02096636700632L557.76906625,34.11142968750001L558.0329208928571,34.088815295219426L558.2125666071429,33.80235098934172L558.9227285714286,31.70666628456115L559.2567573214286,31.864972781896594L559.8293780357143,31.435282074451433L560.3318246428571,31.435282074451433L560.6265558928571,31.533285442829122L561.867234107143,34.156658472061174L562.11144,34.224507400274284L562.4903801785715,33.67419893217085L562.8356367857143,34.066200902938846L563.1415958928571,34.30743067288398L563.4419410714286,34.571274835109705L563.6693051785714,34.608969323158284L563.8910553571428,34.510965954780595L564.1689448214286,34.72204128456116L564.3850810714285,34.458197122335434L565.1794519642857,34.55619473934171L565.39278125,34.33758511304856L566.2489053571428,34.91804226994513L566.4734625,34.72958133244515L566.7008266071429,34.75973577260973L567.1976592857143,34.71450698804856L567.6215108928571,34.61650361967087L567.8965933928572,34.79743026065826L568.1492201785715,34.925582317829125L568.41868875,35.15927203989027L568.5955275,35.15173199200632L568.8621891071429,35.38542746543882L569.2411292857142,35.92065583777427L569.4235819642857,35.769883636951455L569.97094,35.22712096810342L570.2011110714286,35.370347369670874L570.4846144642858,35.46081069016457L570.8972382142857,35.06880871939658L571.6888021428572,34.880347781896596L571.9498498214286,34.59388922739029L572.1659860714286,34.33758511304856L572.3680875,34.21696735239029L572.6403630357142,34.27727623271941L573.2242116071428,34.601429275274285L573.4122782142857,34.39788824200632L573.6677119642858,34.518506002664544L574.0915635714285,34.20942730450629L574.2936649999999,34.066200902938846L574.7343583928572,34.126504031896594L575.3631183928571,33.57620131516457L575.8318814285714,33.48573799467087L576.022755,33.334971545219425L576.2473121428571,33.14651060771941L576.9013348214286,32.98066406250001L577.6507942857143,31.65389745211603L577.9034210714285,31.578514227390286L578.4227094642857,31.525745394945126L578.6388457142857,31.141283472061172L579.0374346428572,31.533285442829122L579.5258464285714,31.54835978722571L579.7447896428571,31.209132400274285L580.5784580357142,31.480516610384004L580.8507335714286,31.503131002664585L581.2465155357143,31.065900247335428L581.4430030357142,30.79451603722571L581.6563323214286,30.77944169282912L581.9229939285714,30.696518420219423L582.467545,30.5080574827194L582.7173648214285,30.523131827116032L582.99806125,30.523131827116032L583.31244125,30.802056085109704L583.7559416071429,30.63620953989031L584.2864578571429,30.900053702116033L584.7945183928572,31.035745807170848L585.0303033928571,30.771901644945125L585.2436326785714,30.583440707445146L585.6057310714285,30.77944169282912L585.8415160714285,30.63620953989031L586.8323744642857,27.944987582445144L587.0990360714286,28.186217352390283L587.2786817857143,28.12590847206117L587.5088528571429,27.816835525274282L588.4126953571429,28.00529646277426L588.6119898214286,27.944987582445144L588.8225121428571,27.764066692829118L589.1846105357142,28.156062912225707L589.40355375,28.080679687500005L589.8330192857143,27.764066692829118L590.11090875,27.937447534561148L590.3017823214285,27.68114342021942L590.5516021428572,27.537911267280567L591.21123875,27.990216367006308L591.6042137500001,27.71883215689659L591.83999875,27.73391225266458L592.1627996428572,28.012836510658257L592.3733219642857,28.02791085505484L592.6343696428571,27.990216367006308L593.1199744642856,27.892218749999984L593.3557594642857,28.050525247335425L593.5578608928571,27.877144405603396L594.0546935714286,27.703757812500005L594.3353900000001,27.65098898005484L594.7592416071428,27.50775682711603L595.0174823214286,27.43991365027428L596.1178123214286,27.89975879788398L596.3760530357142,27.85452426195145L596.9655155357143,28.156062912225707L597.1479682142857,28.103294079780586L597.4090158928572,28.07313963961601L597.6756775,27.88467870211603L597.8553232142857,27.703757812500005L598.1921589285714,28.103294079780586L598.4532066071429,28.11837417554854L599.0005646428571,28.450061514616007L599.2616123214285,28.608368011951452L599.4917833928572,28.72144572472573L600.2693125,29.007910030603398L600.5331671428571,29.151136432170848L600.7745660714286,29.332063073158277L601.0384207142857,29.249139800548537L601.487535,29.33959736967087L602.745055,28.94760115027428L603.059435,29.11344769549368L603.3373244642858,29.060678863048558L603.9380148214285,29.49790386700631L604.9288732142858,29.188830920219424L605.5800889285715,28.698831332445145L606.3239344642857,28.90236661434175L606.9863780357143,28.864677877664583L607.2333908928572,28.81944909310342L607.7274166071428,28.72144572472573L607.9856573214286,28.661136844396612L608.1849517857142,28.352063897609725L608.4375785714286,28.457601562500006L608.8979207142858,28.50283034706117L609.1084430357142,28.216371792554863L609.3554558928572,28.2465262327194L609.5575573214286,28.05806529521942L609.8354467857143,28.1711430079937L610.03474125,28.133448519945166L610.3463142857142,27.997756414890304L610.5231530357144,27.839449917554862L610.7027987499999,27.711297860384L611.1378782142857,27.515296874999983L611.3147169642857,27.30422154521942L611.7862869642858,27.372064722061168L612.2494360714286,27.025297287225705L612.4262748214286,26.912219574451427L612.8950378571429,26.768993172883977L613.3385382142857,26.422225738048557L613.6136207142857,26.572992187500002L613.8606335714285,26.6559154601097L614.0655419642857,26.63330106782912L614.7167576785714,26.45237442684173L614.9581566071429,26.39960559439661L615.2163973214285,26.02268371939661L615.5532330357142,26.44484013032914L616.0444517857143,26.557917843103414L616.2746228571428,26.30914802527428L616.6872466071429,26.150841527938837L616.9033828571429,25.902071710109702L618.2900232142856,26.64083536434175L618.5454569642857,26.572992187500002L619.2359701785714,27.289141449451428L619.46614125,27.213758224725726L620.1061291071429,27.20621817684173L620.3868255357143,27.289141449451428L620.6141896428571,27.34191028189659L620.8247119642857,27.213758224725726L621.3552282142857,27.055451727390285L621.5517157142858,27.09314621543886L621.8576748214285,27.213758224725726L622.31521,27.243912664890306L622.5930994642857,27.08560616755486L622.7895869642857,26.912219574451427L623.0843182142856,26.934839718103415L623.8814960714285,27.055451727390285L624.5299048214287,27.515296874999983L625.9137382142858,27.80175542950629L626.1747858928571,27.85452426195145L626.4582892857143,28.080679687500005L626.65758375,28.14098856782912L627.1207328571428,28.306835113048557L627.6652839285714,28.480215954780586L627.9572082142857,28.41990707445143L628.2070280357142,28.34452384972573L628.7291233928571,28.133448519945166L628.9957850000001,28.20129744815828L629.2512187499999,28.065605343103417L629.5150733928572,28.14098856782912L629.9417319642857,28.728985772609725L630.6603148214285,28.90990666222571L630.8989067857143,28.826983389616007L631.3003026785715,29.41498059439657L632.4511580357142,29.279288489341752L632.6504525,29.13606208777426L632.8525539285714,29.030524422883982L633.1388642857142,29.105907647609722L633.5486810714286,28.99282993483545L633.7732382142857,28.955141198158277L633.9921814285714,28.94760115027428L634.2784917857143,29.151136432170848L634.5114698214286,29.11344769549368L635.6539042857142,29.045598767280566L635.8981101785715,29.218985360384L636.1170533928571,29.234059704780588L636.40336375,29.40744629788398L636.6475696428571,29.588367187500005L636.8861616071429,29.49790386700631L637.4138708928571,29.90498018217085L637.9078966071428,29.98790345478059L638.1633303571429,30.06328667950629L638.3822735714286,30.00298355054854L638.6236725,30.1311356077194L638.8285808928571,30.01051784706117L639.0671728571429,29.912520230054845L639.2973439285714,29.867291445493677L639.8559298214286,30.21405888032914L640.05803125,30.28190205717085L640.23487,30.08590682315828L640.4341644642857,29.972829110384L640.7008260714285,29.995443502664585L640.8973135714285,29.618521627664585L641.0966080357142,29.52805830717085L642.1492196428571,29.935134622335426L642.5899130357143,29.82205690956115L642.76955875,29.746673684835446L643.3842839285714,28.94760115027428L643.8811166071429,28.872217925548536L644.0888319642858,28.29929506516456L644.5098766071429,28.103294079780586L645.0460067857143,27.779141037225706L645.2396873214286,27.688683468103417L645.500735,27.824375573158278L646.0144094642857,27.779141037225706L646.6543973214286,27.52283692288398L646.8312360714285,27.394679114341752L647.387015,26.821762005329138L647.9399869642857,26.87453083777426L648.6557628571429,26.346836761951447L649.3883805357143,26.082992599725724L649.6045167857143,26.135761432170888L649.8739853571429,25.902071710109702L650.1069633928572,25.826688485383997L650.3090648214286,25.60807310771944L650.5925682142857,25.83422278189659L650.7834417857142,25.8191484375L650.9602805357143,25.57791866755486L651.2129073214286,25.57791866755486L651.4262366071429,25.366843337774256L652.0662244642857,25.63068749999998L652.3385000000001,25.71361077260972L652.5911267857143,25.63822754788398L653.2114658928571,25.193456744670865L653.4472508928571,24.680842764616006L653.8851373214285,24.432078698158275L654.0619760714286,24.401924257993695L654.460565,23.753618172883975L654.8928374999999,23.69330929255486L655.5889646428571,23.69330929255486L655.7910660714285,23.700849340438857L656.0408858928571,23.82900139760972L656.3019335714285,23.761152469396606L656.4787723214287,23.66315485239028L656.6556110714286,23.61038601994516L656.87736125,23.602845972061164L657.1243741071429,23.678234948158273L657.3966496428571,23.640540460109698L657.5734883928571,23.48977401065825L657.8373430357143,23.66315485239028L658.0478653571429,23.655614804506286L658.2668085714286,23.71592368483544L658.5138214285714,23.806387005329135L659.0246889285714,23.66315485239028L659.3166132142857,23.859155837774257L659.6001166071428,23.851615789890303L659.8808130357143,23.949613406896585L662.4267296428571,24.288846545219418L663.1649612499999,24.15315444016456L663.4260089285714,24.3114609375L663.6056546428572,24.319000985383997L664.0323132142858,24.92961258244514L664.6217757142857,25.26883996939661L664.8828233928571,25.434686514616004L665.1550989285714,25.60807310771944L665.5845644642858,25.080379031896587L666.11227375,25.28392006516456L666.2919194642857,25.208536840438857L666.4715651785714,25.208536840438857L666.7101571428572,25.306534457445142L666.8898028571429,25.291460113048554L667.1283948214286,25.32160880184173L667.5606673214286,25.773919652938837L667.8301358928571,25.871917269945165L668.0799557142857,25.984994982719442L668.5795953571428,26.1960703125L669.1016907142857,26.158375824451426L669.3487035714286,26.301607977390283L669.88483375,26.331762417554863L670.3732455357143,26.407145642280565L671.1900721428572,27.447453698158277L671.5353287500001,27.89975879788398L671.7486580357142,28.00529646277426L671.9311107142858,27.95252763032914L672.8742507142857,30.00298355054854L673.3402067857144,30.530671874999985L674.5864989285715,31.194052304506293L675.2321007142857,31.44282212233543L676.0376994642858,31.81974399733543L676.262256607143,31.797129605054845L676.9611907142856,32.37005246543886L677.1408364285713,32.33989802527429L677.3232891071428,32.35497236967087L678.0278371428572,32.51327886700631L678.2383594642857,31.84235838961601L678.4601096428571,31.70666628456115L678.6790528571428,31.616208715438862L678.9401005357142,31.83482409310342L679.2404457142858,32.05343371939657L679.4593889285715,32.045899422883984L679.7204366071429,32.11374259972573L680.3323548214286,32.10620255184173L680.5091935714286,32.10620255184173L680.7814691071428,32.24189465689659L681.2446182142857,32.324817929506295L681.4691753571428,32.324817929506295L681.8958339285714,32.20420592021942L682.1091632142857,32.234360360384L682.9119549999999,32.54343330717085L683.1308982142857,32.65651101994513L683.3077369642857,32.53589901065826L683.5687846428572,32.57358774733543L683.7484303571429,32.324817929506295L683.9505317857142,32.392666857719405L684.169475,32.27204909706117L684.671921607143,32.468050082445146L684.89647875,32.407741202116036L685.19121,32.65651101994513L685.4101532142857,32.415281249999985L685.5869919642856,32.10620255184173L685.8031282142857,31.92528166222571L686.15399875,31.57097417950629L686.8136353571429,31.676511844396572L686.9904741071429,31.111129031896592L687.4620441071429,31.29958996939657L688.5764089285715,31.20159235239029L688.7700894642857,30.975436926841734L689.1630644642858,30.673904027938843L689.3848146428571,30.786975989341755L690.0388373214286,29.81452261304856L690.4626889285714,29.520524010658256L690.6395276785714,29.41498059439657L690.90899625,29.565752795219424L691.41986375,29.520524010658256L691.636,29.618521627664585L691.8773989285714,29.78436817288398L692.1524814285715,29.882365789890308L692.5230007142858,29.754213732719403L692.8093110714285,29.36221176195145L693.0535169642857,29.294368585109705L693.2893019642858,29.256674097061172L693.5026312499999,29.347137417554865L693.8984132142857,28.78929465293884L694.1398121428572,28.79682894945143L694.4317364285714,28.917446710109704L694.8612019642857,28.630988155603397L695.0380407142858,28.5480648829937L695.7089051785714,27.402219162225705L696.1524055357143,27.09314621543886L696.5566083928571,27.688683468103417L697.0450201785715,25.21607113695145L697.2218589285714,24.620539635658254L697.4492230357142,24.349155425548535L697.6793941071428,24.228537664890304L697.9993880357142,24.432078698158275L698.1958755357143,24.107925655603392L698.4232396428572,23.836541445493715L699.1165598214286,23.535002795219416L699.2933985714286,23.406850738048554L699.4730442857143,22.83392787766458L699.6667248214286,22.53238922739028L699.8828610714286,22.630386844396607L700.1382948214285,22.826387829780582L700.3572380357143,22.818847781896586L700.7109155357143,22.472080347061166L700.9467005357143,22.539929275274275L701.1431880357143,22.472080347061166L701.3986217857142,22.570083715438855L701.7242296428572,22.743464557170885L702.0133469642857,22.713310117006305L702.6252651785715,22.47962039494516L703.0771864285715,22.63792689228056L703.3073575,22.781159045219418L703.5066519642857,22.58515805983544L703.7255951785714,22.577618011951444L703.9248896428571,22.464546050548574L704.1213771428572,22.389157074451465L704.3431273214286,22.5097748351097L704.5424217857143,22.374082730054837L704.74171625,22.336388242006304L705.0111848214286,22.411777218103413L705.6567866071429,22.049929687499997L705.8532741071429,22.10269851994516L706.5213316071429,22.17054744815827L706.7150121428572,22.10269851994516L707.1051801785715,21.80115986967086L707.41394625,22.027315295219417L707.6721869642857,21.929311926841727L708.0960385714285,22.004700902938833L708.3598932142858,22.132852960109698L708.5704155357143,22.22331628060339L709.0644412500001,22.524849179506283L709.2833844642857,22.381622777938833L709.5668878571428,22.660541284561145L710.0777553571429,22.969619982719436L710.2770498214286,22.826387829780582L710.5016069642858,22.15546735239028L710.9619491071428,22.268545065164556L711.2763291071429,22.517314882993695L711.5626394642857,22.766078949451465L712.0594721428572,23.04500320744514L712.2924501785715,23.075157647609718L712.7892828571429,23.12792648005484L713.0559444642857,23.36915625000002L713.3001503571429,23.550077139616004L713.5696189285713,23.61038601994516L713.8054039285714,23.768692517280563L714.0411889285714,23.678234948158273L714.4846892857142,23.497308307170883L714.7681926785714,23.678234948158273L715.6692282142858,24.17576883244514L716.2278141071429,24.44715304255486L717.0053432142856,24.673308468103414L717.9428692857143,24.695922860383998L719.9217791071428,25.38945773005484L720.1323014285714,24.869303702116024L720.3989630357142,25.027610199451427L720.6515898214285,24.952226974725725L720.9968464285714,25.404532074451428L721.6817457142856,25.155768007993697L721.8978819642857,25.208536840438857L722.3161196428572,25.246225577116025L722.5547116071428,25.065304687500003L723.0431233928572,25.336688897609722L723.2620666071429,25.4422265625L723.5287282142858,25.63822754788398L723.7925828571429,25.76637960505484L724.1855578571428,25.54776422739028L724.4999378571429,25.917146054506286L724.7497576785714,26.113147039890304L725.0501028571429,26.286533632993695L725.2802739285714,26.376991202116027L725.7995623214285,26.21114465689659L725.9960498214285,25.96238059043886L726.1869233928571,25.947300494670866L726.5798983928572,25.88699161434175L727.0177848214286,25.84930287766458L727.2339210714285,25.811608389616005L728.4830201785715,26.38453124999998L728.8956439285714,26.422225738048557L729.8359769642858,26.490068914890305L730.0801828571429,26.618220972061167L730.3131608928571,26.71622434043886L730.5292971428571,26.663455507993696L731.3152471428571,27.09314621543886L731.7419057142857,26.889605182170886L732.3313682142857,26.64083536434175L732.5110139285715,26.41468569016456L733.1060903571428,26.120687087774257L733.3194196428572,26.105606992006308L733.9060751785714,25.54776422739028L734.1250183928571,25.600533059835445L734.8492151785714,25.706070724725723L735.0428957142857,25.381917682170887L735.3207851785714,25.359303289890303L735.6099025,25.427152218103416L735.8513014285714,25.449766610383996L736.0281401785713,25.298994409561146L736.2667321428571,25.351763242006307L736.8309319642858,25.404532074451428L737.0695239285715,25.38945773005484L737.3277646428571,25.359303289890303L737.5046033928572,25.20099679255486L737.7965276785714,25.351763242006307L738.0154708928571,25.31407450532914L738.1923096428571,25.223611184835445L738.4084458928571,25.04269029521942L738.6245821428571,24.974841367006306L739.4273739285713,23.859155837774257L740.1291150000001,23.655614804506286L740.3508651785714,23.71592368483544L740.6147198214286,23.889310277938836L740.8505048214286,23.836541445493715L741.3810210714286,23.859155837774257L741.594350357143,23.896844574451467L741.8132935714285,23.768692517280563L741.9929392857143,23.572691531896588L742.172585,23.346541857719437L742.3915282142858,23.28623297739028L742.632927142857,23.33900180983544L742.8546773214287,23.143000824451466L743.0736205357142,23.165620968103415L743.7416780357142,22.63792689228056L744.1823714285715,22.517314882993695L744.4013146428571,22.570083715438855L745.2714735714285,22.56254366755486L745.65041375,22.8037734375L745.86655,22.849002222061163L746.2679458928571,22.622852547883973L746.4447846428571,22.389157074451465L747.0230192857143,22.042389639616L748.1345771428571,22.931925494670864L748.5556217857143,22.66808133244514L749.5071826785714,23.12792648005484L749.7233189285714,23.082697695493714L749.9394551785714,23.11285213565825L750.1527844642857,23.105312087774298L750.9583832142857,23.188235360383995L751.3401303571428,22.93946554255486L751.5618805357143,22.954539886951444L751.78082375,23.01484876728056L752.0923967857142,23.331461761951445L752.31134,23.331461761951445L752.6958941071429,22.947005590438856L752.9148373214285,22.879156662225743L753.4397396428571,22.21577623271944L753.6755246428571,22.18562179255486L753.8916608928571,22.18562179255486L754.0684996428572,21.989620807170883L754.2453383928571,21.989620807170883L754.4614746428572,21.94439202260972L755.5028583928571,22.766078949451465" style="fill: none;" fill="none"></path></g></g></g></g></g></g><g transform="translate(51, 376)" clip-path="url(#clip_1)"><clipPath id="clip_1"><rect width="982" height="23"></rect></clipPath><g><g><line x1="0" y1="0" x2="0" y2="5" style="visibility: inherit;" fill="rgb(0, 0, 0)" stroke="rgb(204, 204, 204)" stroke-width="1px"></line><line x1="140.34821428571428" y1="0" x2="140.34821428571428" y2="5" style="visibility: inherit;" fill="rgb(0, 0, 0)" stroke="rgb(204, 204, 204)" stroke-width="1px"></line><line x1="280.69642857142856" y1="0" x2="280.69642857142856" y2="5" style="visibility: inherit;" fill="rgb(0, 0, 0)" stroke="rgb(204, 204, 204)" stroke-width="1px"></line><line x1="421.04464285714283" y1="0" x2="421.04464285714283" y2="5" style="visibility: inherit;" fill="rgb(0, 0, 0)" stroke="rgb(204, 204, 204)" stroke-width="1px"></line><line x1="561.3928571428571" y1="0" x2="561.3928571428571" y2="5" style="visibility: inherit;" fill="rgb(0, 0, 0)" stroke="rgb(204, 204, 204)" stroke-width="1px"></line><line x1="701.7410714285714" y1="0" x2="701.7410714285714" y2="5" style="visibility: inherit;" fill="rgb(0, 0, 0)" stroke="rgb(204, 204, 204)" stroke-width="1px"></line><line x1="842.0892857142857" y1="0" x2="842.0892857142857" y2="5" style="visibility: inherit;" fill="rgb(0, 0, 0)" stroke="rgb(204, 204, 204)" stroke-width="1px"></line><line x1="982.4375" y1="0" x2="982.4375" y2="5" style="visibility: inherit;" fill="rgb(0, 0, 0)" stroke="rgb(204, 204, 204)" stroke-width="1px"></line></g><g transform="translate(0, 8)"><text x="0" y="0" dx="0em" dy="0.95em" style="text-anchor: middle; visibility: hidden; font-family: Roboto, sans-serif; font-size: 12px; font-weight: 200;" fill="rgb(255, 255, 255)" stroke="none" stroke-width="1px">-50k</text><text x="140.34821428571428" y="0" dx="0em" dy="0.95em" style="text-anchor: middle; visibility: inherit; font-family: Roboto, sans-serif; font-size: 12px; font-weight: 200;" fill="rgb(255, 255, 255)" stroke="none" stroke-width="1px">0</text><text x="280.69642857142856" y="0" dx="0em" dy="0.95em" style="text-anchor: middle; visibility: inherit; font-family: Roboto, sans-serif; font-size: 12px; font-weight: 200;" fill="rgb(255, 255, 255)" stroke="none" stroke-width="1px">50k</text><text x="421.04464285714283" y="0" dx="0em" dy="0.95em" style="text-anchor: middle; visibility: inherit; font-family: Roboto, sans-serif; font-size: 12px; font-weight: 200;" fill="rgb(255, 255, 255)" stroke="none" stroke-width="1px">100k</text><text x="561.3928571428571" y="0" dx="0em" dy="0.95em" style="text-anchor: middle; visibility: inherit; font-family: Roboto, sans-serif; font-size: 12px; font-weight: 200;" fill="rgb(255, 255, 255)" stroke="none" stroke-width="1px">150k</text><text x="701.7410714285714" y="0" dx="0em" dy="0.95em" style="text-anchor: middle; visibility: inherit; font-family: Roboto, sans-serif; font-size: 12px; font-weight: 200;" fill="rgb(255, 255, 255)" stroke="none" stroke-width="1px">200k</text><text x="842.0892857142857" y="0" dx="0em" dy="0.95em" style="text-anchor: middle; visibility: inherit; font-family: Roboto, sans-serif; font-size: 12px; font-weight: 200;" fill="rgb(255, 255, 255)" stroke="none" stroke-width="1px">250k</text><text x="982.4375" y="0" dx="0em" dy="0.95em" style="text-anchor: middle; visibility: hidden; font-family: Roboto, sans-serif; font-size: 12px; font-weight: 200;" fill="rgb(255, 255, 255)" stroke="none" stroke-width="1px">300k</text></g><line x1="0" y1="0" x2="982.4375" y2="0" fill="rgb(0, 0, 0)" stroke="rgb(204, 204, 204)" stroke-width="1px"></line></g></g></g></g></svg>