<svg viewBox="0 0 1034 400" xmlns="http://www.w3.org/2000/svg"><g><g><g><g><g><line x1="51.5625" y1="376.921875" x2="46.5625" y2="376.921875" style="visibility: inherit;" fill="rgb(0, 0, 0)" stroke="rgb(204, 204, 204)" stroke-width="1px"></line><line x1="51.5625" y1="339.2296875" x2="46.5625" y2="339.2296875" style="visibility: inherit;" fill="rgb(0, 0, 0)" stroke="rgb(204, 204, 204)" stroke-width="1px"></line><line x1="51.5625" y1="301.5375" x2="46.5625" y2="301.5375" style="visibility: inherit;" fill="rgb(0, 0, 0)" stroke="rgb(204, 204, 204)" stroke-width="1px"></line><line x1="51.5625" y1="263.8453125" x2="46.5625" y2="263.8453125" style="visibility: inherit;" fill="rgb(0, 0, 0)" stroke="rgb(204, 204, 204)" stroke-width="1px"></line><line x1="51.5625" y1="226.153125" x2="46.5625" y2="226.153125" style="visibility: inherit;" fill="rgb(0, 0, 0)" stroke="rgb(204, 204, 204)" stroke-width="1px"></line><line x1="51.5625" y1="188.4609375" x2="46.5625" y2="188.4609375" style="visibility: inherit;" fill="rgb(0, 0, 0)" stroke="rgb(204, 204, 204)" stroke-width="1px"></line><line x1="51.5625" y1="150.76875" x2="46.5625" y2="150.76875" style="visibility: inherit;" fill="rgb(0, 0, 0)" stroke="rgb(204, 204, 204)" stroke-width="1px"></line><line x1="51.5625" y1="113.07656250000002" x2="46.5625" y2="113.07656250000002" style="visibility: inherit;" fill="rgb(0, 0, 0)" stroke="rgb(204, 204, 204)" stroke-width="1px"></line><line x1="51.5625" y1="75.38437499999998" x2="46.5625" y2="75.38437499999998" style="visibility: inherit;" fill="rgb(0, 0, 0)" stroke="rgb(204, 204, 204)" stroke-width="1px"></line><line x1="51.5625" y1="37.69218749999999" x2="46.5625" y2="37.69218749999999" style="visibility: inherit;" fill="rgb(0, 0, 0)" stroke="rgb(204, 204, 204)" stroke-width="1px"></line><line x1="51.5625" y1="0" x2="46.5625" y2="0" style="visibility: inherit;" fill="rgb(0, 0, 0)" stroke="rgb(204, 204, 204)" stroke-width="1px"></line></g><g transform="translate(41.5625, 0)"><text x="0" y="376.921875" dx="0em" dy="0.3em" style="text-anchor: end; visibility: hidden; font-family: Roboto, sans-serif; font-size: 12px; font-weight: 200;" fill="rgb(255, 255, 255)" stroke="none" stroke-width="1px">-550</text><text x="0" y="339.2296875" dx="0em" dy="0.3em" style="text-anchor: end; visibility: inherit; font-family: Roboto, sans-serif; font-size: 12px; font-weight: 200;" fill="rgb(255, 255, 255)" stroke="none" stroke-width="1px">-500</text><text x="0" y="301.5375" dx="0em" dy="0.3em" style="text-anchor: end; visibility: inherit; font-family: Roboto, sans-serif; font-size: 12px; font-weight: 200;" fill="rgb(255, 255, 255)" stroke="none" stroke-width="1px">-450</text><text x="0" y="263.8453125" dx="0em" dy="0.3em" style="text-anchor: end; visibility: inherit; font-family: Roboto, sans-serif; font-size: 12px; font-weight: 200;" fill="rgb(255, 255, 255)" stroke="none" stroke-width="1px">-400</text><text x="0" y="226.153125" dx="0em" dy="0.3em" style="text-anchor: end; visibility: inherit; font-family: Roboto, sans-serif; font-size: 12px; font-weight: 200;" fill="rgb(255, 255, 255)" stroke="none" stroke-width="1px">-350</text><text x="0" y="188.4609375" dx="0em" dy="0.3em" style="text-anchor: end; visibility: inherit; font-family: Roboto, sans-serif; font-size: 12px; font-weight: 200;" fill="rgb(255, 255, 255)" stroke="none" stroke-width="1px">-300</text><text x="0" y="150.76875" dx="0em" dy="0.3em" style="text-anchor: end; visibility: inherit; font-family: Roboto, sans-serif; font-size: 12px; font-weight: 200;" fill="rgb(255, 255, 255)" stroke="none" stroke-width="1px">-250</text><text x="0" y="113.07656250000002" dx="0em" dy="0.3em" style="text-anchor: end; visibility: inherit; font-family: Roboto, sans-serif; font-size: 12px; font-weight: 200;" fill="rgb(255, 255, 255)" stroke="none" stroke-width="1px">-200</text><text x="0" y="75.38437499999998" dx="0em" dy="0.3em" style="text-anchor: end; visibility: inherit; font-family: Roboto, sans-serif; font-size: 12px; font-weight: 200;" fill="rgb(255, 255, 255)" stroke="none" stroke-width="1px">-150</text><text x="0" y="37.69218749999999" dx="0em" dy="0.3em" style="text-anchor: end; visibility: inherit; font-family: Roboto, sans-serif; font-size: 12px; font-weight: 200;" fill="rgb(255, 255, 255)" stroke="none" stroke-width="1px">-100</text><text x="0" y="0" dx="0em" dy="0.3em" style="text-anchor: end; visibility: hidden; font-family: Roboto, sans-serif; font-size: 12px; font-weight: 200;" fill="rgb(255, 255, 255)" stroke="none" stroke-width="1px">-50</text></g><line x1="51.5625" y1="0" x2="51.5625" y2="376.921875" fill="rgb(0, 0, 0)" stroke="rgb(204, 204, 204)" stroke-width="1px"></line></g></g><g transform="translate(51, 0)" clip-path="url(#clip_0)"><clipPath id="clip_0"><rect width="982" height="376"></rect></clipPath><g><g><g><line x1="0" y1="0" x2="0" y2="376.921875" fill="rgb(0, 0, 0)" stroke="rgb(189, 189, 189)" stroke-width="1px" opacity="0.25"></line><line x1="140.34821428571428" y1="0" x2="140.34821428571428" y2="376.921875" fill="rgb(0, 0, 0)" stroke="rgb(189, 189, 189)" stroke-width="1px" opacity="0.25"></line><line x1="280.69642857142856" y1="0" x2="280.69642857142856" y2="376.921875" fill="rgb(0, 0, 0)" stroke="rgb(189, 189, 189)" stroke-width="1px" opacity="0.25"></line><line x1="421.04464285714283" y1="0" x2="421.04464285714283" y2="376.921875" fill="rgb(0, 0, 0)" stroke="rgb(189, 189, 189)" stroke-width="1px" opacity="0.25"></line><line x1="561.3928571428571" y1="0" x2="561.3928571428571" y2="376.921875" fill="rgb(0, 0, 0)" stroke="rgb(189, 189, 189)" stroke-width="1px" opacity="0.25"></line><line x1="701.7410714285714" y1="0" x2="701.7410714285714" y2="376.921875" fill="rgb(0, 0, 0)" stroke="rgb(189, 189, 189)" stroke-width="1px" opacity="0.25"></line><line x1="842.0892857142857" y1="0" x2="842.0892857142857" y2="376.921875" fill="rgb(0, 0, 0)" stroke="rgb(189, 189, 189)" stroke-width="1px" opacity="0.25"></line><line x1="982.4375" y1="0" x2="982.4375" y2="376.921875" fill="rgb(0, 0, 0)" stroke="rgb(189, 189, 189)" stroke-width="1px" opacity="0.25"></line></g><g><line x1="0" y1="376.921875" x2="982.4375" y2="376.921875" fill="rgb(0, 0, 0)" stroke="rgb(189, 189, 189)" stroke-width="1px" opacity="0.25"></line><line x1="0" y1="339.2296875" x2="982.4375" y2="339.2296875" fill="rgb(0, 0, 0)" stroke="rgb(189, 189, 189)" stroke-width="1px" opacity="0.25"></line><line x1="0" y1="301.5375" x2="982.4375" y2="301.5375" fill="rgb(0, 0, 0)" stroke="rgb(189, 189, 189)" stroke-width="1px" opacity="0.25"></line><line x1="0" y1="263.8453125" x2="982.4375" y2="263.8453125" fill="rgb(0, 0, 0)" stroke="rgb(189, 189, 189)" stroke-width="1px" opacity="0.25"></line><line x1="0" y1="226.153125" x2="982.4375" y2="226.153125" fill="rgb(0, 0, 0)" stroke="rgb(189, 189, 189)" stroke-width="1px" opacity="0.25"></line><line x1="0" y1="188.4609375" x2="982.4375" y2="188.4609375" fill="rgb(0, 0, 0)" stroke="rgb(189, 189, 189)" stroke-width="1px" opacity="0.25"></line><line x1="0" y1="150.76875" x2="982.4375" y2="150.76875" fill="rgb(0, 0, 0)" stroke="rgb(189, 189, 189)" stroke-width="1px" opacity="0.25"></line><line x1="0" y1="113.07656250000002" x2="982.4375" y2="113.07656250000002" fill="rgb(0, 0, 0)" stroke="rgb(189, 189, 189)" stroke-width="1px" opacity="0.25"></line><line x1="0" y1="75.38437499999998" x2="982.4375" y2="75.38437499999998" fill="rgb(0, 0, 0)" stroke="rgb(189, 189, 189)" stroke-width="1px" opacity="0.25"></line><line x1="0" y1="37.69218749999999" x2="982.4375" y2="37.69218749999999" fill="rgb(0, 0, 0)" stroke="rgb(189, 189, 189)" stroke-width="1px" opacity="0.25"></line><line x1="0" y1="0" x2="982.4375" y2="0" fill="rgb(0, 0, 0)" stroke="rgb(189, 189, 189)" stroke-width="1px" opacity="0.25"></line></g></g></g><g><g><line x1="0" y1="-37.69218750000003" x2="982.4375" y2="-37.69218750000003" fill="rgb(0, 0, 0)" stroke="rgb(153, 153, 153)" stroke-width="1.5px"></line></g></g><g><g><line x1="140.34821428571428" y1="0" x2="140.34821428571428" y2="376.921875" fill="rgb(0, 0, 0)" stroke="rgb(153, 153, 153)" stroke-width="1.5px"></line></g></g><g><g><g><g><g><path stroke="rgb(0, 119, 187)" stroke-width="2px" d="M145.96214285714285,339.2296875L148.76910714285717,339.2296875L150.17258928571428,339.2296875L152.97955357142857,339.22968749999995L155.78651785714285,339.22968750000007L157.19,339.2296875L158.59348214285714,339.22968749999995L159.99696428571428,339.2296875L161.40044642857143,339.22968749999995L162.80392857142857,339.22968749999995L164.20741071428571,339.22968749999995L165.61089285714286,339.2296875L167.014375,339.2296875L168.41785714285714,339.22968749999995L169.8213392857143,339.22968749999995L172.62830357142857,339.2296875L175.3510589285714,339.2296875L176.75454107142858,339.2296875L182.28145375,339.2296875L183.43511607142858,312.0903202417334L184.83859821428572,322.94630529224827L186.24208035714287,329.4597439063378L187.6455625,333.3677522065253L190.4525267857143,335.7125374344017L193.17528214285716,273.1932697165622L194.50297625,291.16481748611403L197.26502910714285,310.3907851692612L198.47763767857143,301.12025290857645L199.88111982142857,316.364032361816L201.2846019642857,325.51029643909004L203.91192053571427,330.998053591374L206.7188848214286,334.29070741687553L208.1223669642857,336.2662995444637L211.97632892857143,298.85485365479616L212.8913992857143,262.23572406336893L214.05628946428573,267.1010844882048L214.74118875,218.4573878918838L215.43450892857143,190.17578263011524L217.92709321428572,180.44371955638692L218.3004194642857,132.9923066704015L220.5207282142857,215.48725906840596L221.41053589285713,168.79376791857325L222.29192267857144,180.5806232545473L223.17611642857142,187.9542739540058L223.69540482142855,153.1785893687887L224.5094244642857,163.97461612194653L225.97185285714284,171.65838217345546L226.9851669642857,196.47165430463042L228.38864910714287,253.5748675835475L229.79213124999998,287.8367955504055L232.22015535714286,267.3848523301441L233.505745,211.99382389792527L234.07555875,173.02999433868717L236.1246426785714,239.50987160328188L238.83897714285715,279.39779796199423L240.09930410714284,287.65060377719965L241.03683017857142,257.92547476631313L242.4403123214286,290.4471598597923L243.35818964285713,257.49264591587263L244.23957642857144,233.79995004952238L245.64025160714286,183.70137002971197L246.2156792857143,156.65759701782676L246.87250892857142,149.17592071069595L247.35249982142858,125.69005242641737L250.38963517857144,119.13696895585043L252.2506525,111.28513137351023L253.99939125,154.5184913241062L254.3867523214286,118.94485729446369L254.89200589285713,110.26525187667822L258.72351214285715,83.64832612600694L260.84557714285717,82.75504567560415L262.41747714285714,114.18205240536253L262.9395725,109.2167939432175L263.73394339285716,135.48677636593052L266.8356389285714,149.13800331955832L267.58790535714286,154.916439491735L268.55630803571427,181.60188869504097L271.1499430357143,168.66555821702457L272.15202928571426,193.46980993021475L274.5547907142857,182.42013595812887L277.1091282142857,146.54119407487732L278.0522682142857,123.2046039449264L279.18347482142855,112.82109986695583L279.64101,101.46485992017351L280.33994410714286,120.58334095210411L281.11466625,140.19594207126244L282.51814839285714,219.8094402427575L283.8121589285714,255.51603914565447L285.98755625,289.00149848739267L287.32367125,209.5853990924356L288.9910080357143,144.74810195546135L289.4373153571429,119.4149111732768L289.7264326785714,87.32889670396608L290.68080053571424,78.63110052237965L291.31798142857144,100.24926031342778L291.89621607142857,106.8878686880567L292.85619785714283,104.84028371283402L293.70109410714286,138.28854522770038L295.17194339285714,169.21285213662023L296.3256057142857,210.08121128197214L298.2427623214286,212.5899892691833L299.62098178571426,260.23049356151L301.02446392857144,291.830171136906L303.83142821428567,310.78997768214356L308.89799875,263.06451160928617L309.90850589285714,251.01379446557164L310.6383166071428,213.62961417934295L311.12672839285716,165.26688100760578L312.46565035714286,176.95680360456345L313.6586101785714,218.94910716273813L315.25857982142855,191.37542679764286L317.8157242857143,233.9325685785857L319.2192064285714,276.05141614715143L320.5188308928572,289.8642996882909L321.92231303571424,309.61045481297447L324.6198057142857,309.3966478877847L326.02328785714286,321.32986373267084L335.8476628571429,328.4897932396025L341.46159142857147,332.7857509437615L347.07552,335.3633255662569L348.47900214285715,336.90987033975415L349.8824842857143,337.8377972038525L353.41364535714285,314.2715533223115L354.81712749999997,324.25480699338686L356.22060964285714,330.24475919603213L357.6240917857143,333.83873051761924L361.8345382142857,335.9951133105715L363.23802035714283,337.28894298634293L364.6415025,338.06524079180576L366.0449846428572,338.53101947508344L367.4484667857143,338.81048668505L368.8519489285714,338.97816701103005L370.9684,264.599012706618L371.75435,227.81149512397081L372.1529389285714,164.12680957438252L374.9599032142857,234.1679607446295L376.3633853571429,276.1926514467777L377.0847751785714,227.8323158680666L378.02230125,222.03450202084L378.5163269642857,170.91288871250399L378.9598273214286,134.81224572750241L382.0474880357143,216.57922243650148L382.60046,173.97200846190086L385.4074242857143,240.0750800771405L388.41368303571426,183.5464605462843L388.94700624999996,152.04158882777062L389.96874125,121.07716579666233L390.8360932142857,150.4429744779974L391.3778373214286,133.08410968679843L392.2058917857143,153.42561581207906L392.76447767857144,136.68291948724746L394.1286623214286,101.6096891923485L395.2430271428571,93.53186351540909L395.53495142857145,72.10060560924543L395.90266375,67.3833633655473L396.2900248214286,66.66378051932838L396.9131708928572,56.58283081159699L398.27174160714287,61.69114848695823L399.36084374999996,106.97138909217493L401.51659232142856,199.87470845530493L402.5720108928571,217.9245125731829L403.47866035714287,212.7729075439097L404.5396928571428,226.26650702634583L404.7810917857143,146.31371671580752L405.73826660714286,101.96049252948448L406.2800107142857,103.9946205176907L407.81261321428576,79.8859473106144L408.68838607142857,91.65450588636864L409.61468428571425,107.7617660318212L411.8714835714286,104.4600096190927L412.62375,84.68824327145559L413.02795285714285,78.8559334628734L414.8749353571429,183.005435077724L415.3268566071428,142.9723860466344L415.5850973214286,98.14646912798067L415.89947732142855,77.28166897678838L416.15491107142856,58.430501386073004L416.5703417857143,64.30743833164382L416.91559839285713,60.295162998986264L417.1598042857143,47.03244779939173L417.42927285714285,41.788656179635076L417.7155832142857,40.45160620778101L418.9871380357143,43.569363724668605L419.30993892857146,45.44001823480115L419.95834767857144,48.371635940880665L420.8986807142857,39.57679406452845L422.2095330357143,48.773688938717065L422.5491757142857,50.37183836323019L422.91127410714284,53.7430280179381L423.18916357142854,46.71961681076289L423.8852907142857,51.55169508645775L424.18563589285714,47.81711705187462L424.6094875,58.844020231124794L424.8480794642857,45.55868713867489L425.15123160714285,44.52284978320496L425.48806732142856,47.51979736992294L426.64453660714287,41.17645342195378L426.9841792857143,45.81349705317228L427.53715125,39.851135731903355L429.2185228571429,59.79364393914201L429.7799157142857,47.033073863485214L430.51253339285716,46.915169318091145L430.95603375,60.41361409085467L431.24234410714286,51.626580954512804L431.4921639285715,42.43437357270766L431.82057875,45.36209914362463L432.0619776785714,37.77107198617477L432.4268830357143,46.4841056917049L432.7384560714286,45.98271341502291L433.608615,46.28495304901376L434.11106160714286,34.40479682940826L434.4450903571429,41.147428097644976L435.23946125000003,56.65143185858693L435.9440092857143,52.98772161515219L436.27523107142855,51.9956454690913L436.62610160714286,53.5111622814548L437.00784875,57.73738486887289L437.2773173214286,48.211618421323735L437.6787132142857,56.66842105279423L438.1980016071429,74.40707763167654L438.56010000000003,68.16417157900595L439.21692964285717,61.10151544740354L439.4639425,47.81779676844213L440.3762058928572,60.050578061065245L440.94601964285715,81.86404683663918L441.52706125,60.275315601983515L442.2316092857143,49.131301861190096L442.5291475,46.06334361671403L442.82107178571425,43.61949367002843L443.09896125,40.645496202017085L443.37404375,38.559560221210255L444.15157285714287,50.27411113272612L444.42946232142856,44.63826667963571L444.93190892857143,43.6690600077814L445.20137750000004,39.770623504668826L445.49049482142857,39.54232410280129L445.8385583928572,45.73763196168078L446.22030553571426,53.07326667700847L446.8518725,54.157735006205066L447.17467339285713,51.79304100372301L447.4244932142857,42.534249602233835L447.71641750000003,41.502037261340284L449.2827035714286,47.21499735680416L450.7535528571429,49.73816091408252L451.3149457142857,74.77198404844953L451.9970380357143,58.43237792906974L452.25808571428576,47.724001757441805L452.76333928571427,37.07745105446507L455.05382214285714,35.21258313267904L455.30644892857146,32.88751237960748L456.5134435714286,42.347819927764455L456.90922553571426,52.547066956658675L457.1899219642857,46.303577673995214L457.6081596428572,57.33282160439713L458.1527107142857,48.5719554626383L458.70568267857146,41.20467327758295L459.51128142857146,53.97194146654982L460.2410921428571,63.74306487992987L460.93441232142857,55.735013927957894L462.060005,54.85017085677474L463.5252403571428,59.14386501406484L463.88733874999997,59.00624400843893L464.29434857142854,63.748271405063356L465.11117517857144,110.617962843038L465.73432125,79.33689020582281L466.1076475,72.32820912349366L467.14622428571425,63.59993797409619L467.5728828571429,68.61525028445773L468.64233624999997,74.03673767067464L469.97845125000003,80.00346760240477L471.38193339285715,75.7435305614429L471.61771839285717,55.396855836865726L472.2352505357143,84.19795100211947L472.91453589285715,108.11243310127169L473.39733375000003,101.35349736076301L474.18328375,84.0304859164578L474.5818726785714,77.85820404987469L474.99168946428574,75.36098492992484L475.2751928571429,60.29346595795488L475.7215001785714,68.74212957477296L476.1172821428571,68.38365274486375L476.3895576785714,54.9009166469183L477.36076732142857,75.45733748815096L477.94180892857145,63.065114992890564L478.2253123214286,52.915943995734374L479.17406625,48.93720389744063L479.5165158928571,50.77148483846434L480.9396467857143,41.92131590307861L481.8041917857143,37.515827041847146L482.1241857142857,41.50635872510831L482.91013571428573,60.48524023506496L483.23012964285715,55.288006641039004L483.82520607142857,46.13891648462337L484.44273821428567,50.600199890774036L485.29044142857146,50.563132434464414L485.6946442857143,58.38086696067868L487.2356676785714,52.81923267640718L488.1198614285714,49.48225210584431L488.3865230357143,42.9570012635066L488.62792196428575,36.32801325810395L488.8833557142857,33.8583079548624L489.16124517857145,34.78878477291744L489.4784321428571,39.568595863750495L489.93316035714287,57.21182001825031L490.4636766071428,50.007042010950165L490.7219173214286,42.3672627065701L491.09524357142857,50.14643262394207L491.3534842857143,42.45089707436522L491.74365232142856,52.005838244619135L491.9822442857142,41.45577794677151L492.22083625000005,35.125741768062895L493.3632707142857,41.57999506083773L493.64677410714285,40.02487203650264L495.6172630357143,38.48872322190157L496.5351403571429,68.92693393314096L496.7933810714286,53.71919785988453L497.0291660714286,42.18225621593075L497.2312675,31.64164122955843L497.52880571428574,35.56954723773507L497.7758185714286,32.49861584264107L498.0340592857143,31.862207005584594L498.3428253571429,36.90803670335079L498.57299642857146,31.492484522010457L498.8957973214285,38.19389071320627L499.80525374999996,105.23607192792376L500.04384571428574,73.39391815675431L500.28805160714285,54.891700894052576L500.5855898214286,49.51958303643155L500.86628625000003,44.4870873218589L501.10487821428575,36.94452739311534L501.62697357142855,62.87427893586918L502.37924000000004,48.278379861521536L502.62905982142854,40.425452916912924L502.8480030357143,32.39678425014776L503.40939589285716,38.133395550088686L503.95394696428576,35.5446123300532L504.44797267857143,33.9913423980319L504.69217857142854,31.25015543881914L505.50619821428575,35.334655763291515L505.93566375,51.95761845797485L506.1939044642857,43.53760857478494L506.90687339285716,40.294827644870985L507.16511410714287,36.53993408692259L507.50756375000003,43.33312295215356L508.50684303571427,44.092123771292094L509.0149035714286,39.42138676277527L509.27033732142854,35.714332057665146L509.81208142857145,31.680874234599063L510.05067339285716,29.260799540759464L510.34821160714284,34.14104222445565L510.5615408928571,28.023062834673397L510.8225885714286,29.47841270080405L511.03030392857136,24.622410120482446L511.44292767857144,43.72104607228944L511.71520321428574,40.103352643373704L512.1278269642858,53.009611586024214L512.7144825,48.39032945161457L513.0204416071429,46.523372670968705L513.2871032142857,41.18167360258122L514.1797178571429,54.25967916154876L514.3902401785715,39.792707496929246L514.7130410714285,43.17402449815752L515.3951333928571,53.64586469889455L515.7151273214286,51.184381319336694L515.9481053571429,40.359828791602034L516.1754694642857,33.2620222749612L516.6975648214285,37.747925864976736L517.1775557142857,33.50410551898605L517.4470242857143,33.671650811391636L517.68561625,30.45526548683494L518.23578125,30.334659292100973L518.86454125,38.705345575260566L519.6055798214286,67.85075734515634L519.7880325,44.931979407093834L520.1108333928572,46.2575876442563L520.8630998214286,38.00682758655379L521.7978189285715,35.46867155193226L522.0448317857143,32.438090431159374L522.3592117857143,37.85664175869564L522.6314873214286,36.58471005521738L522.923411607143,37.93231353313042L523.38375375,34.51935061987824L524.7114478571428,31.566960371926918L524.9921442857143,33.715513723156185L525.4328376785713,26.863133233893684L525.8651101785714,28.17937994033623L526.8166710714286,20.827615464201717L527.5998141071428,29.382669278521035L527.82437125,26.374189067112663L528.4952357142857,29.092163440267576L528.7029510714285,24.390660564160587L528.8882107142857,19.157458838496314L529.1436444642858,23.555975303097775L529.4215339285714,28.607385181858668L529.6881955357143,30.432081109115245L529.9183666071428,27.606911165469132L530.1176610714285,22.594896699281485L530.3450251785714,22.603063019568864L531.3106208928572,28.9402503117413L531.5604407142857,28.82257518704478L532.8011189285714,96.2963701122269L533.5954898214285,98.18384706733612L533.8088191071429,66.4487457404017L534.0642528571428,51.93074744424102L534.3112657142857,42.31533596654457L534.5695064285715,37.75223907992673L534.8333610714286,35.617455947956074L535.0523042857143,29.51198606877366L535.2487917857143,23.43640414126416L535.6361528571429,40.295604984758505L536.0515835714286,32.0173379908551L536.253685,25.542690294513058L536.4670142857143,22.86405167670783L536.7252550000001,26.081468506024684L536.9245494642856,21.679631103614817L537.4971701785714,25.370816162168893L537.7947083928572,31.80705219730131L537.9968098214285,25.416518818380798L538.4908355357143,21.280661291028483L538.70977875,20.9099092746171L538.9315289285714,20.988995564770274L539.2262601785715,28.876422338862145L539.4423964285714,25.16582840331732L539.6220421428571,19.019484541990387L539.9560708928572,31.916240725194225L540.1609792857143,25.783569435116533L540.4164130357143,27.531641661069923L541.0114894642857,20.74050999664194L541.3707808928572,16.364293497985177L541.7890185714285,20.07085109879113L542.7153167857142,15.660960659274657L542.9651366071429,20.855001395564813L543.2374121428571,26.383725837338858L543.5237225,31.20864800240332L543.8296816071429,36.21436380144199L544.1047641071428,35.90088078086517L544.3854605357143,36.31586596851909L544.7531728571428,45.912519581111454L545.0647458928571,45.63976174866688L545.31175875,38.54074454920012L545.5615785714286,34.582871729520114L545.7861357142857,29.49431053771206L546.0247276785715,27.948861322627256L546.7769941071429,31.24311679357635L547.0380417857143,31.410445076145855L547.7117132142857,29.701617045687495L547.9755678571429,30.787082727412518L548.5453816071429,29.02606213644748L548.8344989285714,33.09558728186849L549.0478282142857,27.395789869121103L549.2948410714286,27.594361421472662L549.5895723214286,32.83964185288358L549.8786896428571,35.38373511173017L550.5860446428571,36.00557856703807L550.8639341071428,36.07714714022285L551.5488333928572,79.84302578413372L552.7277583928571,71.12420297048023L552.9803851785714,54.434484282288146L553.4631830357143,44.11911556937285L553.8084396428571,48.18216934162374L553.9852783928571,32.52775160497423L554.2014146428571,27.356625962984527L554.8049119642858,29.38008807779072L555.6610360714286,34.21261534667443L555.8799792857143,28.66908170800464L556.4638278571429,32.57986152480278L556.7922426785715,39.44939191488166L557.0364485714285,34.52498514892899L557.317145,35.49032858935739L557.5276673214286,28.53109715361444L557.76906625,27.672470792168657L558.0329208928571,29.56959497530119L558.2125666071429,21.661744485180677L558.9227285714286,22.646246691108463L559.2567573214286,34.09229801466504L559.8293780357143,36.13532880879903L560.3318246428571,29.219634785279414L560.6265558928571,33.81480587116765L561.867234107143,138.19004602270056L562.11144,93.7693776136203L562.4903801785715,62.59391406817222L562.8356367857143,59.267048440903345L563.1415958928571,53.04940406454196L563.4419410714286,48.71574243872519L563.6693051785714,38.27557046323511L563.8910553571428,31.40839227794109L564.1689448214286,33.318835366764645L564.3850810714285,27.831276220058758L565.1794519642857,36.29870323203529L565.39278125,29.317659439221146L566.2489053571428,30.858245663532717L566.4734625,27.259534898119604L566.7008266071429,25.401845938871745L567.1976592857143,24.588770063323057L567.6215108928571,21.387087037993798L567.8965933928572,27.00451472279629L568.1492201785715,27.9626713336778L568.41868875,30.346790300206642L568.5955275,21.82652418012402L568.8621891071429,26.3635645080744L569.2411292857142,41.14728870484465L569.4235819642857,28.909898222906776L569.97094,28.50282643374409L570.2011110714286,26.449358360246396L570.4846144642858,30.94649001614784L570.8972382142857,24.90018150968873L571.6888021428572,29.112371405813217L571.9498498214286,30.131997843487923L572.1659860714286,25.919173706092778L572.3680875,21.883791723655666L572.6403630357142,27.001000034193403L573.2242116071428,27.357487520516035L573.4122782142857,21.239092512309657L573.6677119642858,24.804955507385756L574.0915635714285,25.73832330443148L574.2936649999999,21.775281482658876L574.7343583928572,24.825131389595303L575.3631183928571,22.131978833757223L575.8318814285714,29.562212300254323L576.022755,22.863464880152616L576.2473121428571,22.462666428091584L576.9013348214286,24.031412356854975L577.6507942857143,21.655747414112952L577.9034210714285,24.75341094846779L578.4227094642857,23.29509656908069L578.6388457142857,21.817032941448403L579.0374346428572,40.53013226486904L579.5258464285714,33.6657418589214L579.7447896428571,28.340957615352856L580.5784580357142,31.779912069211683L580.8507335714286,32.938672241527016L581.2465155357143,25.793953344916247L581.4430030357142,21.20558450694972L581.6563323214286,20.261788204169815L581.9229939285714,25.424722922501893L582.467545,30.03017125350113L582.7173648214285,29.47652775210069L582.99806125,32.46125415126043L583.31244125,37.870539990756235L583.7559416071429,32.06998649445374L584.2864578571429,37.93731689667223L584.7945183928572,36.63311513800331L585.0303033928571,31.93060658280202L585.2436326785714,26.696801449681203L585.6057310714285,39.53800586980871L585.8415160714285,33.673541021885214L586.8323744642857,32.26562461313113L587.0990360714286,32.627024767878666L587.2786817857143,23.496202360727235L587.5088528571429,23.44538391643634L588.4126953571429,33.36563034986179L588.6119898214286,26.050128209917087L588.8225121428571,22.866976925950226L589.1846105357142,37.24011115557014L589.40355375,30.485579193342126L589.8330192857143,25.82978501600522L590.11090875,29.971671009603146L590.3017823214285,23.109140105761902L590.5516021428572,25.32390906345717L591.21123875,42.634257938074306L591.6042137500001,33.118992262844564L591.83999875,29.82213285770674L592.1627996428572,37.19167971462405L592.3733219642857,29.55190782877444L592.6343696428571,30.395719697264624L593.1199744642856,21.855881818358796L593.3557594642857,23.064266591015286L593.5578608928571,20.17084745460917L594.0546935714286,22.957858472765487L594.3353900000001,28.550052583659312L594.7592416071428,21.05001905019561L595.0174823214286,24.993048930117325L596.1178123214286,21.93119185807041L596.3760530357142,25.521752614842224L596.9655155357143,34.30991406890535L597.1479682142857,24.80747344134318L597.4090158928572,27.54905906480591L597.6756775,29.797085438883535L597.8553232142857,21.798238763330122L598.1921589285714,33.88503075799807L598.4532066071429,32.99559345479886L599.0005646428571,32.46193107287931L599.2616123214285,32.14173364372757L599.4917833928572,28.632702686236517L600.2693125,34.06572161174193L600.5331671428571,33.40554546704516L600.7745660714286,30.597139780227106L601.0384207142857,31.324396368136224L601.487535,29.34845032088177L602.745055,29.670570192529063L603.059435,36.19612961551742L603.3373244642858,36.19147776931046L603.9380148214285,36.1886866615863L604.9288732142858,28.648574496951756L605.5800889285715,30.456794698171066L606.3239344642857,34.25556431890265L606.9863780357143,26.885626091341557L607.2333908928572,27.28826315480495L607.7274166071428,26.92677039288299L607.9856573214286,28.519099735729803L608.1849517857142,23.14220984143788L608.4375785714286,25.645288404862697L608.8979207142858,23.830223042917652L609.1084430357142,21.535033825750546L609.3554558928572,24.077907795450336L609.5575573214286,20.77903217727021L609.8354467857143,26.94121930636213L610.03474125,22.195481583817234L610.3463142857142,31.409538950290354L610.5231530357144,22.4641733701742L610.7027987499999,17.398491522104532L611.1378782142857,18.882144913262728L611.3147169642857,14.947736947957647L611.7862869642858,14.999392168774602L612.2494360714286,24.37804780126475L612.4262748214286,18.245278680758855L612.8950378571429,21.500979708455354L613.3385382142857,24.359012825073147L613.6136207142857,28.787670195043894L613.8606335714285,28.429489617026363L614.0655419642857,23.691518770215833L614.7167576785714,25.6733362621295L614.9581566071429,25.9578142572777L615.2163973214285,27.937726054366582L615.5532330357142,37.56872313261998L616.0444517857143,34.90427137957202L616.2746228571428,30.290225327743187L616.6872466071429,23.903347696645927L616.9033828571429,22.181983617987562L618.2900232142856,38.939877670792555L618.5454569642857,35.4254266024755L619.2359701785714,51.10746846148531L619.46614125,40.012143576891184L620.1061291071429,49.03489864613468L620.3868255357143,44.196276687680836L620.6141896428571,35.5638910126085L620.8247119642857,28.575234607565115L621.3552282142857,29.809715764539032L621.5517157142858,23.615041958723456L621.8576748214285,31.65820017523407L622.31521,27.739507605140453L622.5930994642857,31.117504563084275L622.7895869642857,24.39971523785057L623.0843182142856,30.9228541427103L623.8814960714285,31.51982498562619L624.5299048214287,27.35494499137572L625.9137382142858,39.32981699482543L626.1747858928571,36.262465196895285L626.4582892857143,36.83435411813718L626.65758375,28.1313624708823L627.1207328571428,30.146467482529403L627.6652839285714,34.06936798951762L627.9572082142857,36.42310829371058L628.2070280357142,33.312289976226324L628.7291233928571,34.76271148573584L628.9957850000001,34.125276891441466L629.2512187499999,32.53666613486486L629.5150733928572,32.48811218091893L629.9417319642857,49.948154808551315L630.6603148214285,34.793492885130824L630.8989067857143,31.128370731078487L631.3003026785715,46.418472438647086L632.4511580357142,37.50028346318827L632.6504525,28.530920077912924L632.8525539285714,23.450839546747744L633.1388642857142,29.44891622804866L633.5486810714286,23.398562236829193L633.7732382142857,22.78372484209754L633.9921814285714,21.811747405258533L634.2784917857143,28.465460943155133L634.5114698214286,26.728476565893054L635.6539042857142,35.033948439535855L635.8981101785715,31.875719063721508L636.1170533928571,27.266943938232888L636.40336375,31.738578862939736L636.6475696428571,29.898497317763834L636.8861616071429,28.191373390658285L637.4138708928571,25.65941153439498L637.9078966071428,24.140234420636997L638.1633303571429,26.545640652382225L638.3822735714286,24.068896891429333L638.6236725,24.99515063485762L638.8285808928571,21.630915380914544L639.0671728571429,23.23082422854871L639.2973439285714,23.2861570371292L639.8559298214286,33.270094222277535L640.05803125,26.294344033366546L640.23487,19.39505642001993L640.4341644642857,17.667783852011905L640.7008260714285,23.86832031120718L640.8973135714285,20.050204686724303L641.0966080357142,18.06087281203457L642.1492196428571,18.978036187220734L642.5899130357143,18.32218421233242L642.76955875,14.913298027399472L643.3842839285714,17.994103816439676L643.8811166071429,20.445662289863797L644.0888319642858,19.202759873918293L644.5098766071429,15.441643424350996L645.0460067857143,23.4372485546106L645.2396873214286,19.490024132766376L645.500735,24.35858947965981L646.0144094642857,26.073578687795898L646.6543973214286,27.102572212677547L646.8312360714285,19.879993327606517L647.387015,15.847983496563938L647.9399869642857,24.585665097938335L648.6557628571429,18.36984905876302L649.3883805357143,14.941896935257798L649.6045167857143,16.805113161154686L649.8739853571429,23.652255396692798L650.1069633928572,23.840553238015698L650.3090648214286,20.636619442809423L650.5925682142857,27.458846665685652L650.7834417857142,21.601445499411394L650.9602805357143,16.579317299646824L651.2129073214286,21.70755287978813L651.4262366071429,20.562969227872866L652.0662244642857,46.41151903672371L652.3385000000001,41.71763642203423L652.5911267857143,36.79054435322055L653.2114658928571,30.517376611932335L653.4472508928571,28.26116346715941L653.8851373214285,22.384373080295653L654.0619760714286,17.04907384817738L654.460565,18.67249430890647L654.8928374999999,20.551159085343873L655.5889646428571,28.613720451206287L655.7910660714285,23.500519770723812L656.0408858928571,25.558736862434255L656.3019335714285,27.99981711746054L656.4787723214287,20.418340270476335L656.6556110714286,15.869454162285788L656.87736125,17.96472249737149L657.1243741071429,21.935720998422887L657.3966496428571,27.032157599053754L657.5734883928571,19.83774455943223L657.8373430357143,24.868759235659358L658.0478653571429,22.15815554139558L658.2668085714286,21.436405824837372L658.5138214285714,24.01873099490244L659.0246889285714,32.201951096941464L659.3166132142857,35.302658158164846L659.6001166071428,36.2584698948989L659.8808130357143,36.53041943693934L662.4267296428571,28.25053916216359L663.1649612499999,27.80567349729813L663.4260089285714,29.34797909837889L663.6056546428572,21.528774959027363L664.0323132142858,43.37255247541641L664.6217757142857,49.844993985249836L664.8828233928571,42.5715713911499L665.1550989285714,39.41366783468994L665.5845644642858,31.186638200813984L666.11227375,28.6627204204884L666.2919194642857,21.11761975229302L666.4715651785714,16.590559351375816L666.7101571428572,20.206610610825482L666.8898028571429,16.043953866495293L667.1283948214286,19.878647319897176L667.5606673214286,42.98555089193829L667.8301358928571,39.360518035163L668.0799557142857,35.07473582109778L668.5795953571428,40.041703992658675L669.1016907142857,34.277297395595184L669.3487035714286,31.72326593735712L669.88483375,32.603147062414294L670.3732455357143,34.33722573744857L671.1900721428572,63.722197942469165L671.5353287500001,59.94401876548146L671.7486580357142,43.50484875928893L671.9311107142858,30.324434255573347L672.8742507142857,104.13284805334402L673.3402067857144,97.1565213320064L674.5864989285715,69.14926279920384L675.2321007142857,61.39103267952228L676.0376994642858,55.831482107713356L676.262256607143,42.24347676462804L676.9611907142856,42.83526105877681L677.1408364285713,29.621144135266096L677.3232891071428,21.994211481159677L678.0278371428572,21.941114388695798L678.2383594642857,20.40156863321752L678.4601096428571,20.68399117993052L678.6790528571428,20.5519072079583L678.9401005357142,24.995719324774974L679.2404457142858,31.883531594865L679.4593889285715,27.271631456919007L679.7204366071429,29.027553874151366L680.3323548214286,21.03498232449083L680.5091935714286,16.23943939469453L680.7814691071428,23.614388636816713L681.2446182142857,24.722445682090036L681.4691753571428,23.57805490925399L681.8958339285714,25.605257945552427L682.1091632142857,22.901592267331456L682.9119549999999,29.72244286039887L683.1308982142857,25.97497821623928L683.3077369642857,19.20343692974359L683.5687846428572,24.186637157846157L683.7484303571429,18.431969794707722L683.9505317857142,17.391469376824656L684.169475,18.576394126094776L684.671921607143,25.921173975656902L684.89647875,24.29729188539414L685.19121,30.861400131236476L685.4101532142857,26.658352578741876L685.5869919642856,19.613461547245127L685.8031282142857,19.608051928347084L686.15399875,15.081743657008229L686.8136353571429,12.96903369420494L686.9904741071429,11.399870216522993L687.4620441071429,18.599884629913774L688.5764089285715,19.602980777948236L688.7700894642857,17.189463466768956L689.1630644642858,13.93212808006142L689.3848146428571,16.802326848036866L690.0388373214286,13.699846108822106L690.4626889285714,19.37679516529329L690.6395276785714,15.244527099175937L690.90899625,22.71590375950559L691.41986375,17.247992255703373L691.636,18.188770353422022L691.8773989285714,21.467074712053183L692.1524814285715,27.05250732723193L692.5230007142858,19.246879396339143L692.8093110714285,26.92654013780348L693.0535169642857,27.011274082682124L693.2893019642858,26.15750194960929L693.5026312499999,23.232938669765566L693.8984132142857,17.55821320185936L694.1398121428572,21.08874042111559L694.4317364285714,28.634731752669342L694.8612019642857,25.322351551601606L695.0380407142858,18.81186093096094L695.7089051785714,18.825554058576547L696.1524055357143,20.341457435145962L696.5566083928571,40.24786196108754L697.0450201785715,38.92405467665253L697.2218589285714,26.972882805991524L697.4492230357142,25.229854683594905L697.6793941071428,24.485575310156943L697.9993880357142,33.68820768609415L698.1958755357143,25.942137111656535L698.4232396428572,24.611407266993897L699.1165598214286,22.003744360196343L699.2933985714286,16.820696616117825L699.4730442857143,14.012405469670691L699.6667248214286,13.83511828180241L699.8828610714286,16.141045969081436L700.1382948214285,21.74612758144888L700.3572380357143,21.18918904886932L700.7109155357143,16.331963429321586L700.9467005357143,19.749915557592985L701.1431880357143,17.579161834555762L701.3986217857142,22.60899710073345L701.7242296428572,33.16533576044007L702.0133469642857,35.57915145626403L702.6252651785715,27.679778373758435L703.0771864285715,26.25706702425506L703.3073575,25.101902714553052L703.5066519642857,21.091891628731844L703.7255951785714,20.79664747723908L703.9248896428571,18.50873848634346L704.1213771428572,16.834455591806066L704.3431273214286,18.543723355083632L704.5424217857143,17.15698401305019L704.74171625,16.324940407830137L705.0111848214286,23.364151744698052L705.6567866071429,22.461541046818873L705.8532741071429,19.206137128091278L706.5213316071429,21.47441977685479L706.7150121428572,18.31232686611289L707.1051801785715,16.41507111966771L707.41394625,27.639755171800644L707.6721869642857,28.94689060308038L708.0960385714285,23.3988843618482L708.3598932142858,27.005443117108914L708.5704155357143,23.440165870265364L709.0644412500001,19.491774522159222L709.2833844642857,19.83657721329554L709.5668878571428,26.978821327977304L710.0777553571429,26.138030296786393L710.2770498214286,21.713568178071856L710.5016069642858,21.772728406843115L710.9619491071428,25.728212044105863L711.2763291071429,33.83071472646348L711.5626394642857,35.67684133587811L712.0594721428572,31.055304801526884L712.2924501785715,28.282382880916156L712.7892828571429,31.443229728549646L713.0559444642857,32.133587837129795L713.3001503571429,30.135502702277876L713.5696189285713,31.65048912136674L713.8054039285714,28.941030972820045L714.0411889285714,27.315356083692045L714.4846892857142,23.626113650215192L714.7681926785714,29.252543190129128L715.6692282142858,35.64377591407745L716.2278141071429,33.14622804844648L717.0053432142856,37.97998682906791L717.9428692857143,37.864867097440744L719.9217791071428,39.001945258464445L720.1323014285714,30.638067155078655L720.3989630357142,31.65049029304718L720.6515898214285,30.75025667582833L720.9968464285714,40.160854005497L721.6817457142856,30.12726240329819L721.8978819642857,25.916332441978938L722.3161196428572,23.691311965187342L722.5547116071428,24.467062179112382L723.0431233928572,20.710987307467477L723.2620666071429,20.568104884480476L723.5287282142858,25.608512930688274L723.7925828571429,28.331220258412976L724.1855578571428,22.42640715504779L724.4999378571429,31.849631793028657L724.7497576785714,30.568204075817228L725.0501028571429,35.22702244549031L725.2802739285714,30.48387596729422L725.7995623214285,26.431838080376547L725.9960498214285,21.588315348225883L726.1869233928571,18.07912670893552L726.5798983928572,16.87822602536134L727.0177848214286,16.760760615216785L727.2339210714285,17.89643136913007L728.4830201785715,19.180908821478067L728.8956439285714,17.23775779288681L729.8359769642858,20.594929675732086L730.0801828571429,23.212307805439213L730.3131608928571,23.57658468326356L730.5292971428571,21.985925809958136L731.3152471428571,21.031530485974862L731.7419057142857,16.237368291584964L732.3313682142857,13.662408474950956L732.5110139285715,12.117432584970585L733.1060903571428,10.888909550982346L733.3194196428572,14.071783230589423L733.9060751785714,13.870744938353642L734.1250183928571,16.463959463012216L734.8492151785714,17.416813177807327L735.0428957142857,15.877762906684403L735.3207851785714,24.000457744010653L735.6099025,30.080224646406425L735.8513014285714,28.60194728784383L736.0281401785713,20.77961837270629L736.2667321428571,22.720046023623734L736.8309319642858,29.31197761417427L737.0695239285715,27.83946156850454L737.3277646428571,29.066714441102743L737.5046033928572,21.058478664661614L737.7965276785714,28.61657469879696L738.0154708928571,25.311457319278166L738.1923096428571,18.805324391566902L738.4084458928571,19.123169634940147L738.6245821428571,19.313876780964087L739.4273739285713,15.206776068578423L740.1291150000001,16.964040641147076L740.3508651785714,18.621474384688238L740.6147198214286,24.138997130812996L740.8505048214286,24.43413577848777L741.3810210714286,30.038893967092676L741.594350357143,25.561773880255586L741.8132935714285,23.47857682815337L741.9929392857143,18.007133596892015L742.172585,14.724267658135197L742.3915282142858,16.97607309488114L742.632927142857,20.73945635692867L742.8546773214287,20.886723814157175L743.0736205357142,20.673546788494356L743.7416780357142,24.76716557309658L744.1823714285715,23.30334934385794L744.4013146428571,22.123522106314745L745.2714735714285,21.114088263788823L745.65041375,37.99760295827335L745.86655,30.638536774963967L746.2679458928571,26.826172064978387L746.4447846428571,19.71415323898706L747.0230192857143,15.748479443392224L748.1345771428571,30.85825016603537L748.5556217857143,25.751850099621205L749.5071826785714,29.924910059772742L749.7233189285714,25.79492103586367L749.9394551785714,23.316927621518182L750.1527844642857,21.528594072910934L750.9583832142857,23.470968943746545L751.3401303571428,20.71640636624795L751.5618805357143,20.872893819748725L751.78082375,20.66524879184927L752.0923967857142,30.491399275109536L752.31134,26.436352065065755L752.6958941071429,19.17872373903943L752.9148373214285,19.648746743423665L753.4397396428571,15.106160546054193L753.6755246428571,19.014433827632516L753.8916608928571,19.2486352965795L754.0684996428572,15.16763117794772L754.2453383928571,12.719028706768619L754.4614746428572,15.47139222406116L755.5028583928571,33.70737283443668" style="fill: none;" fill="none"></path></g></g></g></g><g opacity="0.2"><g><g><g><path stroke="rgb(0, 119, 187)" stroke-width="2px" d="M145.96214285714285,339.2296875L148.76910714285717,339.2296875L150.17258928571428,339.2296875L152.97955357142857,339.2296875L155.78651785714285,339.2296875L157.19,339.2296875L158.59348214285714,339.2296875L159.99696428571428,339.2296875L161.40044642857143,339.2296875L162.80392857142857,339.2296875L164.20741071428571,339.2296875L165.61089285714286,339.2296875L167.014375,339.2296875L168.41785714285714,339.2296875L169.8213392857143,339.2296875L172.62830357142857,339.2296875L175.3510589285714,339.2296875L176.75454107142858,339.2296875L182.28145375,339.2296875L183.43511607142858,271.38374999999996L184.83859821428572,339.2296875L186.24208035714287,339.2296875L187.6455625,339.2296875L190.4525267857143,339.2296875L193.17528214285716,179.41481249999998L194.50297625,318.12206249999997L197.26502910714285,339.2296875L198.47763767857143,287.21446875L199.88111982142857,339.2296875L201.2846019642857,339.2296875L203.91192053571427,339.2296875L206.7188848214286,339.2296875L208.1223669642857,339.2296875L211.97632892857143,242.7376875L212.8913992857143,207.30703125000002L214.05628946428573,274.39912499999997L214.74118875,145.49184375000002L215.43450892857143,147.753375L217.92709321428572,165.84562499999998L218.3004194642857,61.815187500000015L220.5207282142857,339.2296875L221.41053589285713,98.75353125000001L222.29192267857144,198.26090625L223.17611642857142,199.01475000000002L223.69540482142855,101.0150625L224.5094244642857,180.16865625L225.97185285714284,183.18403125L226.9851669642857,233.6915625L228.38864910714287,339.2296875L229.79213124999998,339.2296875L232.22015535714286,236.7069375L233.505745,128.90728124999998L234.07555875,114.58425000000001L236.1246426785714,339.2296875L238.83897714285715,339.2296875L240.09930410714284,300.0298125L241.03683017857142,213.33778125000003L242.4403123214286,339.2296875L243.35818964285713,208.060875L244.23957642857144,198.26090625L245.64025160714286,108.55350000000001L246.2156792857143,116.09193750000001L246.87250892857142,137.95340625L247.35249982142858,90.46124999999999L250.38963517857144,109.30734375000002L252.2506525,99.50737500000001L253.99939125,219.36853125000002L254.3867523214286,65.58440625000001L254.89200589285713,97.24584375L258.72351214285715,43.7229375L260.84557714285717,81.41512499999999L262.41747714285714,161.3225625L262.9395725,101.76890625L263.73394339285716,174.89175L266.8356389285714,169.61484374999998L267.58790535714286,163.58409375000002L268.55630803571427,221.63006250000004L271.1499430357143,149.2610625L272.15202928571426,230.6761875L274.5547907142857,165.84562499999998L277.1091282142857,92.72278125L278.0522682142857,88.19971874999999L279.18347482142855,97.24584375L279.64101,84.4305L280.33994410714286,149.2610625L281.11466625,169.61484374999998L282.51814839285714,339.2296875L283.8121589285714,309.0759375L285.98755625,339.2296875L287.32367125,90.46124999999999L288.9910080357143,47.49215625L289.4373153571429,81.41512499999999L289.7264326785714,39.19987499999999L290.68080053571424,65.58440625000001L291.31798142857144,132.6765L291.89621607142857,116.84578125000002L292.85619785714283,101.76890625L293.70109410714286,188.4609375L295.17194339285714,215.59931250000002L296.3256057142857,271.38374999999996L298.2427623214286,216.35315625L299.62098178571426,331.69125L301.02446392857144,339.2296875L303.83142821428567,339.2296875L308.89799875,191.4763125L309.90850589285714,232.93771875L310.6383166071428,157.55334375L311.12672839285716,92.72278125L312.46565035714286,194.4916875L313.6586101785714,281.9375625L315.25857982142855,150.01490625L317.8157242857143,297.76828125000003L319.2192064285714,339.2296875L320.5188308928572,310.58362500000004L321.92231303571424,339.2296875L324.6198057142857,309.0759375L326.02328785714286,339.2296875L335.8476628571429,339.2296875L341.46159142857147,339.2296875L347.07552,339.2296875L348.47900214285715,339.2296875L349.8824842857143,339.2296875L353.41364535714285,278.9221875L354.81712749999997,339.2296875L356.22060964285714,339.2296875L357.6240917857143,339.2296875L361.8345382142857,339.2296875L363.23802035714283,339.2296875L364.6415025,339.2296875L366.0449846428572,339.2296875L367.4484667857143,339.2296875L368.8519489285714,339.2296875L370.9684,153.03028125L371.75435,172.63021874999998L372.1529389285714,68.59978125000002L374.9599032142857,339.2296875L376.3633853571429,339.2296875L377.0847751785714,155.29181250000002L378.02230125,213.33778125000003L378.5163269642857,94.23046875L378.9598273214286,80.66128124999999L382.0474880357143,339.2296875L382.60046,110.06118750000002L385.4074242857143,339.2296875L388.41368303571426,98.75353125000001L388.94700624999996,104.78428125L389.96874125,74.63053124999998L390.8360932142857,194.4916875L391.3778373214286,107.04581250000001L392.2058917857143,183.937875L392.76447767857144,111.56887500000002L394.1286623214286,48.999843750000004L395.2430271428571,81.41512499999999L395.53495142857145,39.95371874999999L395.90266375,60.30750000000001L396.2900248214286,65.58440625000001L396.9131708928572,41.461406249999996L398.27174160714287,69.35362500000002L399.36084374999996,174.89175L401.51659232142856,339.2296875L402.5720108928571,244.99921875L403.47866035714287,205.0455L404.5396928571428,246.50690625000001L404.7810917857143,26.38453124999998L405.73826660714286,35.43065624999999L406.2800107142857,107.04581250000001L407.81261321428576,43.7229375L408.68838607142857,109.30734375000002L409.61468428571425,131.92265625L411.8714835714286,99.50737500000001L412.62375,55.03059375000001L413.02795285714285,70.10746875000002L414.8749353571429,339.2296875L415.3268566071428,82.92281249999999L415.5850973214286,30.907593749999986L415.89947732142855,45.98446875L416.15491107142856,30.153749999999985L416.5703417857143,73.12284374999999L416.91559839285713,54.27675000000001L417.1598042857143,27.138374999999982L417.42927285714285,33.92296874999999L417.7155832142857,38.44603124999999L418.9871380357143,48.246L419.30993892857146,48.246L419.95834767857144,52.769062500000004L420.8986807142857,26.38453124999998L422.2095330357143,62.569031250000016L422.5491757142857,52.769062500000004L422.91127410714284,58.79981250000001L423.18916357142854,36.18449999999999L423.8852907142857,58.79981250000001L424.18563589285714,42.21525L424.6094875,75.38437499999998L424.8480794642857,25.63068749999998L425.15123160714285,42.96909375L425.48806732142856,52.01521875L426.64453660714287,31.661437499999987L426.9841792857143,52.769062500000004L427.53715125,30.907593749999986L429.2185228571429,89.70740624999999L429.7799157142857,27.892218749999984L430.51253339285716,46.7383125L430.95603375,80.66128124999999L431.24234410714286,38.44603124999999L431.4921639285715,28.646062499999985L431.82057875,49.753687500000005L432.0619776785714,26.38453124999998L432.4268830357143,59.55365625000001L432.7384560714286,45.230624999999996L433.608615,46.7383125L434.11106160714286,16.584562500000015L434.4450903571429,51.261375L435.23946125000003,79.90743749999999L435.9440092857143,47.49215625L436.27523107142855,50.50753125L436.62610160714286,55.78443750000001L437.00784875,64.07671875000001L437.2773173214286,33.92296874999999L437.6787132142857,69.35362500000002L438.1980016071429,101.0150625L438.56010000000003,58.79981250000001L439.21692964285717,50.50753125L439.4639425,27.892218749999984L440.3762058928572,78.39974999999998L440.94601964285715,114.58425000000001L441.52706125,27.892218749999984L442.2316092857143,32.415281249999985L442.5291475,41.461406249999996L442.82107178571425,39.95371874999999L443.09896125,36.18449999999999L443.37404375,35.43065624999999L444.15157285714287,67.84593750000002L444.42946232142856,36.18449999999999L444.93190892857143,42.21525L445.20137750000004,33.92296874999999L445.49049482142857,39.19987499999999L445.8385583928572,55.03059375000001L446.22030553571426,64.07671875000001L446.8518725,55.78443750000001L447.17467339285713,48.246L447.4244932142857,28.646062499999985L447.71641750000003,39.95371874999999L449.2827035714286,55.78443750000001L450.7535528571429,53.522906250000005L451.3149457142857,112.32271875000002L451.9970380357143,33.92296874999999L452.25808571428576,31.661437499999987L452.76333928571427,21.10762500000002L455.05382214285714,32.415281249999985L455.30644892857146,29.399906249999983L456.5134435714286,56.53828125000001L456.90922553571426,67.84593750000002L457.1899219642857,36.938343749999994L457.6081596428572,73.87668749999999L458.1527107142857,35.43065624999999L458.70568267857146,30.153749999999985L459.51128142857146,73.12284374999999L460.2410921428571,78.39974999999998L460.93441232142857,43.7229375L462.060005,53.522906250000005L463.5252403571428,65.58440625000001L463.88733874999997,58.79981250000001L464.29434857142854,70.86131249999998L465.11117517857144,180.92249999999999L465.73432125,32.415281249999985L466.1076475,61.815187500000015L467.14622428571425,50.50753125L467.5728828571429,76.13821874999998L468.64233624999997,82.16896874999999L469.97845125000003,88.95356249999999L471.38193339285715,69.35362500000002L471.61771839285717,24.87684374999998L472.2352505357143,127.39959375L472.91453589285715,143.98415625L473.39733375000003,91.21509375L474.18328375,58.04596875000001L474.5818726785714,68.59978125000002L474.99168946428574,71.61515624999998L475.2751928571429,37.69218749999999L475.7215001785714,81.41512499999999L476.1172821428571,67.84593750000002L476.3895576785714,34.67681249999999L477.36076732142857,106.29196875000001L477.94180892857145,44.476781249999995L478.2253123214286,37.69218749999999L479.17406625,42.96909375L479.5165158928571,53.522906250000005L480.9396467857143,28.646062499999985L481.8041917857143,30.907593749999986L482.1241857142857,47.49215625L482.91013571428573,88.95356249999999L483.23012964285715,47.49215625L483.82520607142857,32.415281249999985L484.44273821428567,57.292125000000006L485.29044142857146,50.50753125L485.6946442857143,70.10746875000002L487.2356676785714,44.476781249999995L488.1198614285714,44.476781249999995L488.3865230357143,33.16912499999999L488.62792196428575,26.38453124999998L488.8833557142857,30.153749999999985L489.16124517857145,36.18449999999999L489.4784321428571,46.7383125L489.93316035714287,83.67665625L490.4636766071428,39.19987499999999L490.7219173214286,30.907593749999986L491.09524357142857,61.815187500000015L491.3534842857143,30.907593749999986L491.74365232142856,66.33825000000002L491.9822442857142,25.63068749999998L492.22083625000005,25.63068749999998L493.3632707142857,51.261375L493.64677410714285,37.69218749999999L495.6172630357143,36.18449999999999L496.5351403571429,114.58425000000001L496.7933810714286,30.907593749999986L497.0291660714286,24.87684374999998L497.2312675,15.830718750000013L497.52880571428574,41.461406249999996L497.7758185714286,27.892218749999984L498.0340592857143,30.907593749999986L498.3428253571429,44.476781249999995L498.57299642857146,23.36915625000002L498.8957973214285,48.246L499.80525374999996,205.79934375000002L500.04384571428574,25.63068749999998L500.28805160714285,27.138374999999982L500.5855898214286,41.461406249999996L500.86628625000003,36.938343749999994L501.10487821428575,25.63068749999998L501.62697357142855,101.76890625L502.37924000000004,26.38453124999998L502.62905982142854,28.646062499999985L502.8480030357143,20.35378125000002L503.40939589285716,46.7383125L503.95394696428576,31.661437499999987L504.44797267857143,31.661437499999987L504.69217857142854,27.138374999999982L505.50619821428575,41.461406249999996L505.93566375,76.89206249999998L506.1939044642857,30.907593749999986L506.90687339285716,35.43065624999999L507.16511410714287,30.907593749999986L507.50756375000003,53.522906250000005L508.50684303571427,45.230624999999996L509.0149035714286,32.415281249999985L509.27033732142854,30.153749999999985L509.81208142857145,25.63068749999998L510.05067339285716,25.63068749999998L510.34821160714284,41.461406249999996L510.5615408928571,18.846093750000016L510.8225885714286,31.661437499999987L511.03030392857136,17.338406250000016L511.44292767857144,72.36899999999999L511.71520321428574,34.67681249999999L512.1278269642858,72.36899999999999L512.7144825,41.461406249999996L513.0204416071429,43.7229375L513.2871032142857,33.16912499999999L514.1797178571429,73.87668749999999L514.3902401785715,18.092250000000018L514.7130410714285,48.246L515.3951333928571,69.35362500000002L515.7151273214286,47.49215625L515.9481053571429,24.12299999999998L516.1754694642857,22.61531250000002L516.6975648214285,44.476781249999995L517.1775557142857,27.138374999999982L517.4470242857143,33.92296874999999L517.68561625,25.63068749999998L518.23578125,30.153749999999985L518.86454125,51.261375L519.6055798214286,111.56887500000002L519.7880325,10.55381250000001L520.1108333928572,48.246L520.8630998214286,25.63068749999998L521.7978189285715,31.661437499999987L522.0448317857143,27.892218749999984L522.3592117857143,45.98446875L522.6314873214286,34.67681249999999L522.923411607143,39.95371874999999L523.38375375,29.399906249999983L524.7114478571428,27.138374999999982L524.9921442857143,36.938343749999994L525.4328376785713,16.584562500000015L525.8651101785714,30.153749999999985L526.8166710714286,9.799968750000009L527.5998141071428,42.21525L527.82437125,21.861468750000018L528.4952357142857,33.16912499999999L528.7029510714285,17.338406250000016L528.8882107142857,11.30765625000001L529.1436444642858,30.153749999999985L529.4215339285714,36.18449999999999L529.6881955357143,33.16912499999999L529.9183666071428,23.36915625000002L530.1176610714285,15.076875000000014L530.3450251785714,22.61531250000002L531.3106208928572,38.44603124999999L531.5604407142857,28.646062499999985L532.8011189285714,197.50706250000002L533.5954898214285,101.0150625L533.8088191071429,18.846093750000016L534.0642528571428,30.153749999999985L534.3112657142857,27.892218749999984L534.5695064285715,30.907593749999986L534.8333610714286,32.415281249999985L535.0523042857143,20.35378125000002L535.2487917857143,14.323031250000012L535.6361528571429,65.58440625000001L536.0515835714286,19.599937500000017L536.253685,15.830718750000013L536.4670142857143,18.846093750000016L536.7252550000001,30.907593749999986L536.9245494642856,15.076875000000014L537.4971701785714,30.907593749999986L537.7947083928572,41.461406249999996L537.9968098214285,15.830718750000013L538.4908355357143,15.076875000000014L538.70977875,20.35378125000002L538.9315289285714,21.10762500000002L539.2262601785715,40.707562499999995L539.4423964285714,19.599937500000017L539.6220421428571,9.799968750000009L539.9560708928572,51.261375L540.1609792857143,16.584562500000015L540.4164130357143,30.153749999999985L541.0114894642857,10.55381250000001L541.3707808928572,9.799968750000009L541.7890185714285,25.63068749999998L542.7153167857142,9.046125000000009L542.9651366071429,28.646062499999985L543.2374121428571,34.67681249999999L543.5237225,38.44603124999999L543.8296816071429,43.7229375L544.1047641071428,35.43065624999999L544.3854605357143,36.938343749999994L544.7531728571428,60.30750000000001L545.0647458928571,45.230624999999996L545.31175875,27.892218749999984L545.5615785714286,28.646062499999985L545.7861357142857,21.861468750000018L546.0247276785715,25.63068749999998L546.7769941071429,36.18449999999999L547.0380417857143,31.661437499999987L547.7117132142857,27.138374999999982L547.9755678571429,32.415281249999985L548.5453816071429,26.38453124999998L548.8344989285714,39.19987499999999L549.0478282142857,18.846093750000016L549.2948410714286,27.892218749999984L549.5895723214286,40.707562499999995L549.8786896428571,39.19987499999999L550.5860446428571,36.938343749999994L550.8639341071428,36.18449999999999L551.5488333928572,145.49184375000002L552.7277583928571,58.04596875000001L552.9803851785714,29.399906249999983L553.4631830357143,28.646062499999985L553.8084396428571,54.27675000000001L553.9852783928571,9.046125000000009L554.2014146428571,19.599937500000017L554.8049119642858,32.415281249999985L555.6610360714286,41.461406249999996L555.8799792857143,20.35378125000002L556.4638278571429,38.44603124999999L556.7922426785715,49.753687500000005L557.0364485714285,27.138374999999982L557.317145,36.938343749999994L557.5276673214286,18.092250000000018L557.76906625,26.38453124999998L558.0329208928571,32.415281249999985L558.2125666071429,9.799968750000009L558.9227285714286,24.12299999999998L559.2567573214286,51.261375L559.8293780357143,39.19987499999999L560.3318246428571,18.846093750000016L560.6265558928571,40.707562499999995L561.867234107143,294.75290625L562.11144,27.138374999999982L562.4903801785715,15.830718750000013L562.8356367857143,54.27675000000001L563.1415958928571,43.7229375L563.4419410714286,42.21525L563.6693051785714,22.61531250000002L563.8910553571428,21.10762500000002L564.1689448214286,36.18449999999999L564.3850810714285,19.599937500000017L565.1794519642857,48.999843750000004L565.39278125,18.846093750000016L566.2489053571428,33.16912499999999L566.4734625,21.861468750000018L566.7008266071429,22.61531250000002L567.1976592857143,23.36915625000002L567.6215108928571,16.584562500000015L567.8965933928572,35.43065624999999L568.1492201785715,29.399906249999983L568.41868875,33.92296874999999L568.5955275,9.046125000000009L568.8621891071429,33.16912499999999L569.2411292857142,63.32287500000002L569.4235819642857,10.55381250000001L569.97094,27.892218749999984L570.2011110714286,23.36915625000002L570.4846144642858,37.69218749999999L570.8972382142857,15.830718750000013L571.6888021428572,35.43065624999999L571.9498498214286,31.661437499999987L572.1659860714286,19.599937500000017L572.3680875,15.830718750000013L572.6403630357142,34.67681249999999L573.2242116071428,27.892218749999984L573.4122782142857,12.061500000000011L573.6677119642858,30.153749999999985L574.0915635714285,27.138374999999982L574.2936649999999,15.830718750000013L574.7343583928572,29.399906249999983L575.3631183928571,18.092250000000018L575.8318814285714,40.707562499999995L576.022755,12.815343750000011L576.2473121428571,21.861468750000018L576.9013348214286,26.38453124999998L577.6507942857143,18.092250000000018L577.9034210714285,29.399906249999983L578.4227094642857,21.10762500000002L578.6388457142857,19.599937500000017L579.0374346428572,68.59978125000002L579.5258464285714,23.36915625000002L579.7447896428571,20.35378125000002L580.5784580357142,36.938343749999994L580.8507335714286,34.67681249999999L581.2465155357143,15.076875000000014L581.4430030357142,14.323031250000012L581.6563323214286,18.846093750000016L581.9229939285714,33.16912499999999L582.467545,36.938343749999994L582.7173648214285,28.646062499999985L582.99806125,36.938343749999994L583.31244125,45.98446875L583.7559416071429,23.36915625000002L584.2864578571429,46.7383125L584.7945183928572,34.67681249999999L585.0303033928571,24.87684374999998L585.2436326785714,18.846093750000016L585.6057310714285,58.79981250000001L585.8415160714285,24.87684374999998L586.8323744642857,30.153749999999985L587.0990360714286,33.16912499999999L587.2786817857143,9.799968750000009L587.5088528571429,23.36915625000002L588.4126953571429,48.246L588.6119898214286,15.076875000000014L588.8225121428571,18.092250000000018L589.1846105357142,58.79981250000001L589.40355375,20.35378125000002L589.8330192857143,18.846093750000016L590.11090875,36.18449999999999L590.3017823214285,12.815343750000011L590.5516021428572,28.646062499999985L591.21123875,68.59978125000002L591.6042137500001,18.846093750000016L591.83999875,24.87684374999998L592.1627996428572,48.246L592.3733219642857,18.092250000000018L592.6343696428571,31.661437499999987L593.1199744642856,9.046125000000009L593.3557594642857,24.87684374999998L593.5578608928571,15.830718750000013L594.0546935714286,27.138374999999982L594.3353900000001,36.938343749999994L594.7592416071428,9.799968750000009L595.0174823214286,30.907593749999986L596.1178123214286,17.338406250000016L596.3760530357142,30.907593749999986L596.9655155357143,47.49215625L597.1479682142857,10.55381250000001L597.4090158928572,31.661437499999987L597.6756775,33.16912499999999L597.8553232142857,9.799968750000009L598.1921589285714,52.01521875L598.4532066071429,31.661437499999987L599.0005646428571,31.661437499999987L599.2616123214285,31.661437499999987L599.4917833928572,23.36915625000002L600.2693125,42.21525L600.5331671428571,32.415281249999985L600.7745660714286,26.38453124999998L601.0384207142857,32.415281249999985L601.487535,26.38453124999998L602.745055,30.153749999999985L603.059435,45.98446875L603.3373244642858,36.18449999999999L603.9380148214285,36.18449999999999L604.9288732142858,17.338406250000016L605.5800889285715,33.16912499999999L606.3239344642857,39.95371874999999L606.9863780357143,15.830718750000013L607.2333908928572,27.892218749999984L607.7274166071428,26.38453124999998L607.9856573214286,30.907593749999986L608.1849517857142,15.076875000000014L608.4375785714286,29.399906249999983L608.8979207142858,21.10762500000002L609.1084430357142,18.092250000000018L609.3554558928572,27.892218749999984L609.5575573214286,15.830718750000013L609.8354467857143,36.18449999999999L610.03474125,15.076875000000014L610.3463142857142,45.230624999999996L610.5231530357144,9.046125000000009L610.7027987499999,9.799968750000009L611.1378782142857,21.10762500000002L611.3147169642857,9.046125000000009L611.7862869642858,15.076875000000014L612.2494360714286,38.44603124999999L612.4262748214286,9.046125000000009L612.8950378571429,26.38453124999998L613.3385382142857,28.646062499999985L613.6136207142857,35.43065624999999L613.8606335714285,27.892218749999984L614.0655419642857,16.584562500000015L614.7167576785714,28.646062499999985L614.9581566071429,26.38453124999998L615.2163973214285,30.907593749999986L615.5532330357142,52.01521875L616.0444517857143,30.907593749999986L616.2746228571428,23.36915625000002L616.6872466071429,14.323031250000012L616.9033828571429,19.599937500000017L618.2900232142856,64.07671875000001L618.5454569642857,30.153749999999985L619.2359701785714,74.63053124999998L619.46614125,23.36915625000002L620.1061291071429,62.569031250000016L620.3868255357143,36.938343749999994L620.6141896428571,22.61531250000002L620.8247119642857,18.092250000000018L621.3552282142857,31.661437499999987L621.5517157142858,14.323031250000012L621.8576748214285,43.7229375L622.31521,21.861468750000018L622.5930994642857,36.18449999999999L622.7895869642857,14.323031250000012L623.0843182142856,40.707562499999995L623.8814960714285,32.415281249999985L624.5299048214287,21.10762500000002L625.9137382142858,57.292125000000006L626.1747858928571,31.661437499999987L626.4582892857143,37.69218749999999L626.65758375,15.076875000000014L627.1207328571428,33.16912499999999L627.6652839285714,39.95371874999999L627.9572082142857,39.95371874999999L628.2070280357142,28.646062499999985L628.7291233928571,36.938343749999994L628.9957850000001,33.16912499999999L629.2512187499999,30.153749999999985L629.5150733928572,32.415281249999985L629.9417319642857,76.13821874999998L630.6603148214285,12.061500000000011L630.8989067857143,25.63068749999998L631.3003026785715,69.35362500000002L632.4511580357142,24.12299999999998L632.6504525,15.076875000000014L632.8525539285714,15.830718750000013L633.1388642857142,38.44603124999999L633.5486810714286,14.323031250000012L633.7732382142857,21.861468750000018L633.9921814285714,20.35378125000002L634.2784917857143,38.44603124999999L634.5114698214286,24.12299999999998L635.6539042857142,47.49215625L635.8981101785715,27.138374999999982L636.1170533928571,20.35378125000002L636.40336375,38.44603124999999L636.6475696428571,27.138374999999982L636.8861616071429,25.63068749999998L637.4138708928571,21.861468750000018L637.9078966071428,21.861468750000018L638.1633303571429,30.153749999999985L638.3822735714286,20.35378125000002L638.6236725,26.38453124999998L638.8285808928571,16.584562500000015L639.0671728571429,25.63068749999998L639.2973439285714,23.36915625000002L639.8559298214286,48.246L640.05803125,15.830718750000013L640.23487,9.046125000000009L640.4341644642857,15.076875000000014L640.7008260714285,33.16912499999999L640.8973135714285,14.323031250000012L641.0966080357142,15.076875000000014L642.1492196428571,20.35378125000002L642.5899130357143,17.338406250000016L642.76955875,9.799968750000009L643.3842839285714,22.61531250000002L643.8811166071429,24.12299999999998L644.0888319642858,17.338406250000016L644.5098766071429,9.799968750000009L645.0460067857143,35.43065624999999L645.2396873214286,13.569187500000012L645.500735,31.661437499999987L646.0144094642857,28.646062499999985L646.6543973214286,28.646062499999985L646.8312360714285,9.046125000000009L647.387015,9.799968750000009L647.9399869642857,37.69218749999999L648.6557628571429,9.046125000000009L649.3883805357143,9.799968750000009L649.6045167857143,19.599937500000017L649.8739853571429,33.92296874999999L650.1069633928572,24.12299999999998L650.3090648214286,15.830718750000013L650.5925682142857,37.69218749999999L650.7834417857142,12.815343750000011L650.9602805357143,9.046125000000009L651.2129073214286,29.399906249999983L651.4262366071429,18.846093750000016L652.0662244642857,85.18434375L652.3385000000001,34.67681249999999L652.5911267857143,29.399906249999983L653.2114658928571,21.10762500000002L653.4472508928571,24.87684374999998L653.8851373214285,13.569187500000012L654.0619760714286,9.046125000000009L654.460565,21.10762500000002L654.8928374999999,23.36915625000002L655.5889646428571,40.707562499999995L655.7910660714285,15.830718750000013L656.0408858928571,28.646062499999985L656.3019335714285,31.661437499999987L656.4787723214287,9.046125000000009L656.6556110714286,9.046125000000009L656.87736125,21.10762500000002L657.1243741071429,27.892218749999984L657.3966496428571,34.67681249999999L657.5734883928571,9.046125000000009L657.8373430357143,32.415281249999985L658.0478653571429,18.092250000000018L658.2668085714286,20.35378125000002L658.5138214285714,27.892218749999984L659.0246889285714,44.476781249999995L659.3166132142857,39.95371874999999L659.6001166071428,37.69218749999999L659.8808130357143,36.938343749999994L662.4267296428571,15.830718750000013L663.1649612499999,27.138374999999982L663.4260089285714,31.661437499999987L663.6056546428572,9.799968750000009L664.0323132142858,76.13821874999998L664.6217757142857,59.55365625000001L664.8828233928571,31.661437499999987L665.1550989285714,34.67681249999999L665.5845644642858,18.846093750000016L666.11227375,24.87684374999998L666.2919194642857,9.799968750000009L666.4715651785714,9.799968750000009L666.7101571428572,25.63068749999998L666.8898028571429,9.799968750000009L667.1283948214286,25.63068749999998L667.5606673214286,77.64590624999998L667.8301358928571,33.92296874999999L668.0799557142857,28.646062499999985L668.5795953571428,47.49215625L669.1016907142857,25.63068749999998L669.3487035714286,27.892218749999984L669.88483375,33.92296874999999L670.3732455357143,36.938343749999994L671.1900721428572,107.79965625000001L671.5353287500001,54.27675000000001L671.7486580357142,18.846093750000016L671.9311107142858,10.55381250000001L672.8742507142857,214.84546875000004L673.3402067857144,86.69203125L674.5864989285715,27.138374999999982L675.2321007142857,49.753687500000005L676.0376994642858,47.49215625L676.262256607143,21.861468750000018L676.9611907142856,43.7229375L677.1408364285713,9.799968750000009L677.3232891071428,10.55381250000001L678.0278371428572,21.861468750000018L678.2383594642857,18.092250000000018L678.4601096428571,21.10762500000002L678.6790528571428,20.35378125000002L678.9401005357142,31.661437499999987L679.2404457142858,42.21525L679.4593889285715,20.35378125000002L679.7204366071429,31.661437499999987L680.3323548214286,9.046125000000009L680.5091935714286,9.046125000000009L680.7814691071428,34.67681249999999L681.2446182142857,26.38453124999998L681.4691753571428,21.861468750000018L681.8958339285714,28.646062499999985L682.1091632142857,18.846093750000016L682.9119549999999,39.95371874999999L683.1308982142857,20.35378125000002L683.3077369642857,9.046125000000009L683.5687846428572,31.661437499999987L683.7484303571429,9.799968750000009L683.9505317857142,15.830718750000013L684.169475,20.35378125000002L684.671921607143,36.938343749999994L684.89647875,21.861468750000018L685.19121,40.707562499999995L685.4101532142857,20.35378125000002L685.5869919642856,9.046125000000009L685.8031282142857,19.599937500000017L686.15399875,8.292281250000007L686.8136353571429,9.799968750000009L686.9904741071429,9.046125000000009L687.4620441071429,29.399906249999983L688.5764089285715,21.10762500000002L688.7700894642857,13.569187500000012L689.1630644642858,9.046125000000009L689.3848146428571,21.10762500000002L690.0388373214286,9.046125000000009L690.4626889285714,27.892218749999984L690.6395276785714,9.046125000000009L690.90899625,33.92296874999999L691.41986375,9.046125000000009L691.636,19.599937500000017L691.8773989285714,26.38453124999998L692.1524814285715,35.43065624999999L692.5230007142858,7.538437500000007L692.8093110714285,38.44603124999999L693.0535169642857,27.138374999999982L693.2893019642858,24.87684374999998L693.5026312499999,18.846093750000016L693.8984132142857,9.046125000000009L694.1398121428572,26.38453124999998L694.4317364285714,39.95371874999999L694.8612019642857,20.35378125000002L695.0380407142858,9.046125000000009L695.7089051785714,18.846093750000016L696.1524055357143,22.61531250000002L696.5566083928571,70.10746875000002L697.0450201785715,36.938343749999994L697.2218589285714,9.046125000000009L697.4492230357142,22.61531250000002L697.6793941071428,23.36915625000002L697.9993880357142,47.49215625L698.1958755357143,14.323031250000012L698.4232396428572,22.61531250000002L699.1165598214286,18.092250000000018L699.2933985714286,9.046125000000009L699.4730442857143,9.799968750000009L699.6667248214286,13.569187500000012L699.8828610714286,19.599937500000017L700.1382948214285,30.153749999999985L700.3572380357143,20.35378125000002L700.7109155357143,9.046125000000009L700.9467005357143,24.87684374999998L701.1431880357143,14.323031250000012L701.3986217857142,30.153749999999985L701.7242296428572,48.999843750000004L702.0133469642857,39.19987499999999L702.6252651785715,15.830718750000013L703.0771864285715,24.12299999999998L703.3073575,23.36915625000002L703.5066519642857,15.076875000000014L703.7255951785714,20.35378125000002L703.9248896428571,15.076875000000014L704.1213771428572,14.323031250000012L704.3431273214286,21.10762500000002L704.5424217857143,15.076875000000014L704.74171625,15.076875000000014L705.0111848214286,33.92296874999999L705.6567866071429,21.10762500000002L705.8532741071429,14.323031250000012L706.5213316071429,24.87684374999998L706.7150121428572,13.569187500000012L707.1051801785715,13.569187500000012L707.41394625,44.476781249999995L707.6721869642857,30.907593749999986L708.0960385714285,15.076875000000014L708.3598932142858,32.415281249999985L708.5704155357143,18.092250000000018L709.0644412500001,13.569187500000012L709.2833844642857,20.35378125000002L709.5668878571428,37.69218749999999L710.0777553571429,24.87684374999998L710.2770498214286,15.076875000000014L710.5016069642858,21.861468750000018L710.9619491071428,31.661437499999987L711.2763291071429,45.98446875L711.5626394642857,38.44603124999999L712.0594721428572,24.12299999999998L712.2924501785715,24.12299999999998L712.7892828571429,36.18449999999999L713.0559444642857,33.16912499999999L713.3001503571429,27.138374999999982L713.5696189285713,33.92296874999999L713.8054039285714,24.87684374999998L714.0411889285714,24.87684374999998L714.4846892857142,18.092250000000018L714.7681926785714,37.69218749999999L715.6692282142858,45.230624999999996L716.2278141071429,29.399906249999983L717.0053432142856,45.230624999999996L717.9428692857143,37.69218749999999L719.9217791071428,40.707562499999995L720.1323014285714,18.092250000000018L720.3989630357142,33.16912499999999L720.6515898214285,29.399906249999983L720.9968464285714,54.27675000000001L721.6817457142856,15.076875000000014L721.8978819642857,19.599937500000017L722.3161196428572,20.35378125000002L722.5547116071428,25.63068749999998L723.0431233928572,15.076875000000014L723.2620666071429,20.35378125000002L723.5287282142858,33.16912499999999L723.7925828571429,32.415281249999985L724.1855578571428,13.569187500000012L724.4999378571429,45.98446875L724.7497576785714,28.646062499999985L725.0501028571429,42.21525L725.2802739285714,23.36915625000002L725.7995623214285,20.35378125000002L725.9960498214285,14.323031250000012L726.1869233928571,12.815343750000011L726.5798983928572,15.076875000000014L727.0177848214286,16.584562500000015L727.2339210714285,19.599937500000017L728.4830201785715,21.10762500000002L728.8956439285714,14.323031250000012L729.8359769642858,25.63068749999998L730.0801828571429,27.138374999999982L730.3131608928571,24.12299999999998L730.5292971428571,19.599937500000017L731.3152471428571,19.599937500000017L731.7419057142857,9.046125000000009L732.3313682142857,9.799968750000009L732.5110139285715,9.799968750000009L733.1060903571428,9.046125000000009L733.3194196428572,18.846093750000016L733.9060751785714,13.569187500000012L734.1250183928571,20.35378125000002L734.8492151785714,18.846093750000016L735.0428957142857,13.569187500000012L735.3207851785714,36.18449999999999L735.6099025,39.19987499999999L735.8513014285714,26.38453124999998L736.0281401785713,9.046125000000009L736.2667321428571,25.63068749999998L736.8309319642858,39.19987499999999L737.0695239285715,25.63068749999998L737.3277646428571,30.907593749999986L737.5046033928572,9.046125000000009L737.7965276785714,39.95371874999999L738.0154708928571,20.35378125000002L738.1923096428571,9.046125000000009L738.4084458928571,19.599937500000017L738.6245821428571,19.599937500000017L739.4273739285713,9.046125000000009L740.1291150000001,19.599937500000017L740.3508651785714,21.10762500000002L740.6147198214286,32.415281249999985L740.8505048214286,24.87684374999998L741.3810210714286,38.44603124999999L741.594350357143,18.846093750000016L741.8132935714285,20.35378125000002L741.9929392857143,9.799968750000009L742.172585,9.799968750000009L742.3915282142858,20.35378125000002L742.632927142857,26.38453124999998L742.8546773214287,21.10762500000002L743.0736205357142,20.35378125000002L743.7416780357142,30.907593749999986L744.1823714285715,21.10762500000002L744.4013146428571,20.35378125000002L745.2714735714285,19.599937500000017L745.65041375,63.32287500000002L745.86655,19.599937500000017L746.2679458928571,21.10762500000002L746.4447846428571,9.046125000000009L747.0230192857143,9.799968750000009L748.1345771428571,53.522906250000005L748.5556217857143,18.092250000000018L749.5071826785714,36.18449999999999L749.7233189285714,19.599937500000017L749.9394551785714,19.599937500000017L750.1527844642857,18.846093750000016L750.9583832142857,26.38453124999998L751.3401303571428,16.584562500000015L751.5618805357143,21.10762500000002L751.78082375,20.35378125000002L752.0923967857142,45.230624999999996L752.31134,20.35378125000002L752.6958941071429,8.292281250000007L752.9148373214285,20.35378125000002L753.4397396428571,8.292281250000007L753.6755246428571,24.87684374999998L753.8916608928571,19.599937500000017L754.0684996428572,9.046125000000009L754.2453383928571,9.046125000000009L754.4614746428572,19.599937500000017L755.5028583928571,61.06134375000001" style="fill: none;" fill="none"></path></g></g></g></g></g><g><g opacity="0.992894"><span fill="rgb(0, 0, 0)" stroke="none" stroke-width="1px">Alt + Scroll to Zoom</span></g></g></g><g transform="translate(51, 376)" clip-path="url(#clip_1)"><clipPath id="clip_1"><rect width="982" height="23"></rect></clipPath><g><g><line x1="0" y1="0" x2="0" y2="5" style="visibility: inherit;" fill="rgb(0, 0, 0)" stroke="rgb(204, 204, 204)" stroke-width="1px"></line><line x1="140.34821428571428" y1="0" x2="140.34821428571428" y2="5" style="visibility: inherit;" fill="rgb(0, 0, 0)" stroke="rgb(204, 204, 204)" stroke-width="1px"></line><line x1="280.69642857142856" y1="0" x2="280.69642857142856" y2="5" style="visibility: inherit;" fill="rgb(0, 0, 0)" stroke="rgb(204, 204, 204)" stroke-width="1px"></line><line x1="421.04464285714283" y1="0" x2="421.04464285714283" y2="5" style="visibility: inherit;" fill="rgb(0, 0, 0)" stroke="rgb(204, 204, 204)" stroke-width="1px"></line><line x1="561.3928571428571" y1="0" x2="561.3928571428571" y2="5" style="visibility: inherit;" fill="rgb(0, 0, 0)" stroke="rgb(204, 204, 204)" stroke-width="1px"></line><line x1="701.7410714285714" y1="0" x2="701.7410714285714" y2="5" style="visibility: inherit;" fill="rgb(0, 0, 0)" stroke="rgb(204, 204, 204)" stroke-width="1px"></line><line x1="842.0892857142857" y1="0" x2="842.0892857142857" y2="5" style="visibility: inherit;" fill="rgb(0, 0, 0)" stroke="rgb(204, 204, 204)" stroke-width="1px"></line><line x1="982.4375" y1="0" x2="982.4375" y2="5" style="visibility: inherit;" fill="rgb(0, 0, 0)" stroke="rgb(204, 204, 204)" stroke-width="1px"></line></g><g transform="translate(0, 8)"><text x="0" y="0" dx="0em" dy="0.95em" style="text-anchor: middle; visibility: hidden; font-family: Roboto, sans-serif; font-size: 12px; font-weight: 200;" fill="rgb(255, 255, 255)" stroke="none" stroke-width="1px">-50k</text><text x="140.34821428571428" y="0" dx="0em" dy="0.95em" style="text-anchor: middle; visibility: inherit; font-family: Roboto, sans-serif; font-size: 12px; font-weight: 200;" fill="rgb(255, 255, 255)" stroke="none" stroke-width="1px">0</text><text x="280.69642857142856" y="0" dx="0em" dy="0.95em" style="text-anchor: middle; visibility: inherit; font-family: Roboto, sans-serif; font-size: 12px; font-weight: 200;" fill="rgb(255, 255, 255)" stroke="none" stroke-width="1px">50k</text><text x="421.04464285714283" y="0" dx="0em" dy="0.95em" style="text-anchor: middle; visibility: inherit; font-family: Roboto, sans-serif; font-size: 12px; font-weight: 200;" fill="rgb(255, 255, 255)" stroke="none" stroke-width="1px">100k</text><text x="561.3928571428571" y="0" dx="0em" dy="0.95em" style="text-anchor: middle; visibility: inherit; font-family: Roboto, sans-serif; font-size: 12px; font-weight: 200;" fill="rgb(255, 255, 255)" stroke="none" stroke-width="1px">150k</text><text x="701.7410714285714" y="0" dx="0em" dy="0.95em" style="text-anchor: middle; visibility: inherit; font-family: Roboto, sans-serif; font-size: 12px; font-weight: 200;" fill="rgb(255, 255, 255)" stroke="none" stroke-width="1px">200k</text><text x="842.0892857142857" y="0" dx="0em" dy="0.95em" style="text-anchor: middle; visibility: inherit; font-family: Roboto, sans-serif; font-size: 12px; font-weight: 200;" fill="rgb(255, 255, 255)" stroke="none" stroke-width="1px">250k</text><text x="982.4375" y="0" dx="0em" dy="0.95em" style="text-anchor: middle; visibility: hidden; font-family: Roboto, sans-serif; font-size: 12px; font-weight: 200;" fill="rgb(255, 255, 255)" stroke="none" stroke-width="1px">300k</text></g><line x1="0" y1="0" x2="982.4375" y2="0" fill="rgb(0, 0, 0)" stroke="rgb(204, 204, 204)" stroke-width="1px"></line></g></g></g></g></svg>